<?xml version="1.0" encoding="UTF-8"?>
<svg version="1.1" xmlns="http://www.w3.org/2000/svg" width="1254" height="1254">
<path d="M0 0 C413.82 0 827.64 0 1254 0 C1254 413.82 1254 827.64 1254 1254 C840.18 1254 426.36 1254 0 1254 C0 840.18 0 426.36 0 0 Z " fill="#08163D" transform="translate(0,0)"/>
<path d="M0 0 C413.82 0 827.64 0 1254 0 C1254 413.82 1254 827.64 1254 1254 C840.18 1254 426.36 1254 0 1254 C0 840.18 0 426.36 0 0 Z M574.25473022 35.76269531 C571.3654837 36.06678125 568.47219913 36.31689521 565.578125 36.5703125 C529.5149143 40.16404722 492.46386103 47.38777533 458.1171875 58.95361328 C455.18903671 59.9365436 452.25632486 60.90474328 449.32159424 61.86782837 C445.96305342 62.97031987 442.60653543 64.07892138 439.25 65.1875 C438.29268982 65.50285706 438.29268982 65.50285706 437.31604004 65.82458496 C429.76888735 68.31592069 422.33918032 70.95095364 415 74 C414.11715332 74.35795654 413.23430664 74.71591309 412.32470703 75.0847168 C385.42377695 86.01829868 359.26097627 98.41038703 334.44189453 113.51904297 C332.28427476 114.82759341 330.11504484 116.11064626 327.93359375 117.37890625 C302.24082337 132.3706021 277.69354716 150.009782 255.109375 169.359375 C252.32785189 171.73718381 249.4842365 174.02849451 246.625 176.3125 C235.78094648 185.14605017 225.80144554 195.03816717 216 205 C213.05546344 207.95981962 210.08893461 210.89585093 207.109375 213.8203125 C200.0467178 220.77885785 193.15015282 227.65538178 187.03125 235.46875 C184.82088116 238.22320963 182.46881819 240.79043602 180.0625 243.375 C175.19806852 248.67961776 170.79533189 254.2633424 166.48681641 260.02001953 C164.79720081 262.27006592 163.09210023 264.50797511 161.38671875 266.74609375 C154.39812692 275.94753288 147.58644749 285.20169153 141.33691406 294.92236328 C139.83571709 297.25530452 138.31953139 299.57824255 136.8046875 301.90234375 C119.01539676 329.36000167 102.91138256 357.91062474 89.875 387.9375 C89.4693985 388.86870667 89.4693985 388.86870667 89.05560303 389.81872559 C86.02292256 396.81521147 83.32930835 403.81921667 80.99829102 411.07788086 C79.96944213 414.0894466 78.78548195 416.98797809 77.53515625 419.9140625 C74.82103787 426.29301912 72.59731727 432.79067088 70.4375 439.375 C70.04328857 440.57181396 69.64907715 441.76862793 69.24291992 443.00170898 C64.19634893 458.4104043 60.28967434 473.90611984 56.73925781 489.72509766 C56.06563537 492.70923616 55.37524688 495.68888475 54.6796875 498.66796875 C48.5338218 525.37654808 45.28243947 552.20828956 43.30957031 579.50024414 C43 583 43 583 42.47436523 586.07885742 C41.75433513 592.03068628 41.83715491 597.96321709 41.83203125 603.953125 C41.828806 605.33575472 41.82544105 606.71838412 41.82194519 608.10101318 C41.81596706 611.00598942 41.81410318 613.91093602 41.81469727 616.81591797 C41.81477747 619.73622984 41.80800768 622.65638131 41.79418945 625.57666016 C41.70610313 644.48343577 42.26129268 663.1550732 44 682 C44.13272629 683.5082726 44.26516839 685.01657025 44.3972168 686.52490234 C46.32628893 707.6623491 49.57084487 727.94275138 54.57519531 748.54663086 C57.09316718 759.00112456 57.09316718 759.00112456 57.5234375 763.3359375 C58.00678076 767.05213408 58.96900506 770.16152252 60.2109375 773.67480469 C61.80939311 778.38510518 62.91068487 783.2449273 64.10546875 788.0703125 C65.34994829 792.9531112 66.98155903 797.36914974 69 802 C69.91545736 804.78983594 70.71094931 807.60964412 71.5 810.4375 C73.08152704 816.07487864 74.86292194 821.54797556 77 827 C77.47179687 828.21300781 77.94359375 829.42601562 78.4296875 830.67578125 C81.06243443 837.30034177 83.79125792 843.82629843 86.8046875 850.2890625 C88.06809959 853.15444808 89.12636845 856.05406136 90.1875 859 C92.95915203 866.33621647 96.63498808 873.10769449 100.34765625 880.00390625 C102.48486844 883.98650558 104.48910972 888.0173536 106.45385742 892.0871582 C121.71859381 923.53627009 141.74770024 953.29440742 163 981 C163.48758789 981.63776367 163.97517578 982.27552734 164.47753906 982.93261719 C170.6156873 990.93182193 177.01525569 998.68961377 183.58203125 1006.33935547 C185.04451984 1008.05213911 186.49205987 1009.77671971 187.9375 1011.50390625 C193.32530524 1017.91192926 198.86652677 1024.02425228 204.85131836 1029.88085938 C207.5365945 1032.51256281 210.08584366 1035.18071047 212.5 1038.0625 C216.33417302 1042.57329179 220.75358309 1046.43887719 225.140625 1050.39453125 C227.41083416 1052.4631508 229.60181346 1054.55747016 231.75 1056.75 C235.32665691 1060.37787395 239.1338939 1063.68529963 243 1067 C244.0433138 1067.90715539 245.08625379 1068.81474081 246.12890625 1069.72265625 C254.22198196 1076.74603046 262.49345411 1083.48434783 271 1090 C271.63164062 1090.4846875 272.26328125 1090.969375 272.9140625 1091.46875 C287.1422575 1102.35246888 301.84560151 1112.45308385 317 1122 C318.49660156 1122.94746094 318.49660156 1122.94746094 320.0234375 1123.9140625 C369.22833883 1154.65131449 422.77086109 1178.51985065 479 1193 C480.2468457 1193.32355469 481.49369141 1193.64710937 482.77832031 1193.98046875 C515.04024187 1202.28563178 547.82771453 1207.13330099 581 1210 C581.97917389 1210.08692108 582.95834778 1210.17384216 583.9671936 1210.26339722 C591.92898195 1210.92884566 599.84040568 1211.18801836 607.828125 1211.23828125 C609.11976059 1211.24798447 610.41139618 1211.25768768 611.74217224 1211.26768494 C615.91143806 1211.29484722 620.08065654 1211.30586576 624.25 1211.3125 C624.96125156 1211.31394516 625.67250313 1211.31539032 626.40530777 1211.31687927 C650.08471489 1211.35572701 673.3887221 1210.38413473 696.88702393 1207.27532959 C698.96877846 1207.0040683 701.0517905 1206.74825599 703.13623047 1206.49853516 C718.12609579 1204.70247514 732.85179162 1202.289461 747.54199219 1198.80859375 C750.84915478 1198.03527248 754.16152394 1197.29136547 757.47680664 1196.55393982 C778.47144409 1191.87134719 798.75383067 1186.28799991 819 1179 C820.89580778 1178.32935485 822.7916393 1177.65877679 824.6875 1176.98828125 C832.13027268 1174.32546488 839.40459925 1171.49408382 846.55078125 1168.1015625 C849.0610604 1166.97253743 851.58203153 1166.07266654 854.1875 1165.1875 C860.94382719 1162.78672643 867.21110313 1159.49333767 873.57568359 1156.22753906 C876.21108312 1154.89311924 878.86305953 1153.59663027 881.51953125 1152.3046875 C895.10128983 1145.67186645 908.20625739 1138.45300359 921.171875 1130.6875 C923.85476451 1129.08665985 926.5496297 1127.50862454 929.25 1125.9375 C941.28331395 1118.8966197 952.70483857 1111.16600641 964 1103 C964.82983398 1102.40364746 965.65966797 1101.80729492 966.51464844 1101.19287109 C976.15117795 1094.25524504 985.51533575 1087.13846188 994.46289062 1079.33105469 C996.6093434 1077.47234114 998.78785023 1075.65287354 1000.96459961 1073.82983398 C1006.51956539 1069.17169991 1011.9392969 1064.39937647 1017.26953125 1059.484375 C1019.37491831 1057.56874386 1021.50462869 1055.70824386 1023.6640625 1053.85546875 C1028.85870601 1049.32229484 1033.69972731 1044.44609827 1038.5625 1039.5625 C1039.46935547 1038.65951172 1040.37621094 1037.75652344 1041.31054688 1036.82617188 C1045.87891001 1032.25118312 1050.32313205 1027.63373409 1054.50610352 1022.70214844 C1056.05328914 1020.93928225 1057.68384047 1019.31180511 1059.375 1017.6875 C1063.9962718 1013.13843557 1067.94350639 1008.04823399 1072 1003 C1073.39502737 1001.31183367 1074.79086908 999.62433995 1076.1875 997.9375 C1101.11258604 967.42052509 1122.78103481 935.02386223 1141.66113281 900.44238281 C1143.14581853 897.73399553 1144.64676916 895.03494334 1146.1484375 892.3359375 C1147.22428811 890.39080736 1148.29981359 888.44549736 1149.375 886.5 C1149.87515625 885.6042627 1150.3753125 884.70852539 1150.890625 883.78564453 C1153.69355028 878.68640377 1156.06802362 873.58806505 1158.15527344 868.15673828 C1159.10066417 865.74298634 1160.21296127 863.47132829 1161.4375 861.1875 C1163.93639483 856.30469016 1165.89174715 851.28867427 1167.81640625 846.15625 C1168.84210217 843.42106089 1169.90533261 840.70809282 1171 838 C1173.40113805 832.0262009 1175.72996729 826.0248252 1178 820 C1178.30558838 819.19763916 1178.61117676 818.39527832 1178.92602539 817.56860352 C1181.47847521 810.73854485 1183.53373877 803.84794934 1185.4375 796.8125 C1187.40566944 789.64684479 1189.40931289 782.51101945 1191.6875 775.4375 C1198.82264865 752.82741857 1203.61835423 728.91267223 1205.76708984 705.29833984 C1206.32839791 699.75939417 1207.11055619 694.24104239 1207.86010742 688.72485352 C1210.53272171 668.12807591 1211.37196821 647.62923233 1211.3125 626.875 C1211.31134186 625.61496155 1211.31018372 624.3549231 1211.30899048 623.05670166 C1211.27014384 601.57366243 1210.33787973 580.35154497 1208 559 C1207.8158252 557.26073242 1207.8158252 557.26073242 1207.62792969 555.48632812 C1206.88825939 548.63571778 1206.00123809 541.81696614 1205 535 C1204.87044922 534.08879395 1204.74089844 533.17758789 1204.60742188 532.23876953 C1198.04129408 486.8071921 1185.22095331 440.59915775 1167 398.4375 C1166.42306396 397.10247437 1166.42306396 397.10247437 1165.83447266 395.74047852 C1164.56532153 392.82293882 1163.28521637 389.91049738 1162 387 C1161.55624023 385.99453125 1161.11248047 384.9890625 1160.65527344 383.953125 C1140.05253478 337.59332295 1113.29769257 293.19791773 1081 254 C1079.93058025 252.68262385 1078.86161322 251.36488013 1077.79296875 250.046875 C1071.59721794 242.43319964 1065.31242588 234.97030526 1058.59765625 227.80859375 C1056.69017976 225.74622443 1054.86245082 223.66756999 1053.04296875 221.53125 C1047.99800568 215.74383869 1042.54000858 210.3539918 1037.11328125 204.92797852 C1035.26271033 203.07522532 1033.42029924 201.21461294 1031.578125 199.35351562 C1025.39238504 193.13909452 1019.15311196 187.26741792 1012.27880859 181.81323242 C1009.61783239 179.69591184 1007.15873014 177.45917032 1004.6875 175.125 C999.06912365 169.97284616 993.16818261 165.2673368 987.12548828 160.63232422 C984.7328387 158.7948265 982.34925391 156.9458315 979.96484375 155.09765625 C970.47475307 147.77180509 960.9344849 140.66225725 950.84228516 134.1875 C948.90961844 132.94174186 946.99129711 131.67585076 945.07421875 130.40625 C927.45776475 118.79095937 909.1658576 108.34713683 890.57470703 98.38134766 C888.08635097 97.04632788 885.60340823 95.70168009 883.12109375 94.35546875 C881.62272727 93.54886318 880.12404781 92.74283863 878.625 91.9375 C877.96588623 91.57946289 877.30677246 91.22142578 876.62768555 90.85253906 C872.20313424 88.49565723 867.71111236 86.697948 863 85 C856.84244384 82.54513324 850.79430426 79.91881153 844.8125 77.0625 C838.32912592 74.03121092 831.69290708 71.69123818 824.93359375 69.37109375 C821.87220691 68.31736339 818.86698339 67.17710709 815.875 65.9375 C801.33228535 60.032708 786.20288577 56.3287972 771 52.5625 C769.84626892 52.27553253 768.69253784 51.98856506 767.50384521 51.69290161 C744.35945675 45.95059984 721.32728522 41.019332 697.6875 37.75 C696.59260254 37.59845459 695.49770508 37.44690918 694.36962891 37.29077148 C672.22579269 34.44591482 650.12279818 33.66977719 627.81451416 33.74609375 C625.13988564 33.75131238 622.46538843 33.74155634 619.79077721 33.73237038 C604.51592164 33.68800785 589.44715771 34.14755352 574.25473022 35.76269531 Z " fill="#FDFDFD" transform="translate(0,0)"/>
<path d="M0 0 C1.02859131 -0.00612305 2.05718262 -0.01224609 3.11694336 -0.01855469 C13.47117202 0.15025077 23.05004948 2.34960196 32.25 7.125 C32.8584375 7.41761719 33.466875 7.71023438 34.09375 8.01171875 C45.33700745 13.70246586 54.54228178 22.34327955 63.30859375 31.23046875 C64.31020599 32.23515184 65.31242174 33.2392336 66.31520081 34.24275208 C68.39274645 36.32484844 70.46535396 38.41168365 72.53393555 40.50268555 C75.1717276 43.16894115 77.81828769 45.82627444 80.46812344 48.48055553 C83.02227771 51.03988178 85.57174989 53.60385251 88.12109375 56.16796875 C88.59894255 56.64769827 89.07679134 57.12742779 89.56912041 57.62169456 C103.25 71.37229357 103.25 71.37229357 103.25 74.5 C103.84385498 74.7686084 104.43770996 75.0372168 105.04956055 75.31396484 C107.25987445 76.50532232 108.69647183 77.70211898 110.45703125 79.4765625 C111.04419922 80.06566406 111.63136719 80.65476562 112.23632812 81.26171875 C112.83896484 81.87660156 113.44160156 82.49148438 114.0625 83.125 C114.65353516 83.71667969 115.24457031 84.30835938 115.85351562 84.91796875 C118.86433509 87.95833824 121.75856332 91.05552903 124.54296875 94.3046875 C129.01010623 99.46874093 133.89021293 104.20895107 138.75 109 C144.25263631 114.42480553 149.65790487 119.84236177 154.68554688 125.71289062 C157.07623095 128.44382188 159.65241739 130.9678195 162.25 133.5 C166.19490897 137.39117859 169.9500639 141.35189991 173.54296875 145.57421875 C176.24221385 148.61936253 179.17061063 151.42842701 182.06640625 154.28515625 C184.02974671 156.27659461 185.87079669 158.31302578 187.6875 160.4375 C190.40619248 163.6103592 193.27751675 166.56338382 196.25 169.5 C199.18118191 172.39591958 202.01403174 175.30242571 204.6875 178.4375 C207.99278617 182.30538808 211.57994996 185.8592107 215.19848633 189.42895508 C218.47004195 192.67348701 221.51955975 196.03608678 224.5078125 199.5390625 C227.22166122 202.59366353 230.15863752 205.41661543 233.06640625 208.28515625 C235.02974671 210.27659461 236.87079669 212.31302578 238.6875 214.4375 C241.40619248 217.6103592 244.27751675 220.56338382 247.25 223.5 C250.81400302 227.02106323 254.15304168 230.63186008 257.40625 234.4375 C259.59796313 236.88924689 261.91067104 239.18885573 264.25 241.5 C267.81400302 245.02106323 271.15304168 248.63186008 274.40625 252.4375 C276.59796313 254.88924689 278.91067104 257.18885573 281.25 259.5 C284.81400302 263.02106323 288.15304168 266.63186008 291.40625 270.4375 C293.59796313 272.88924689 295.91067104 275.18885573 298.25 277.5 C301.13989828 280.35523683 303.93451745 283.21500196 306.5625 286.3125 C309.772389 290.07134863 313.23789835 293.52742679 316.75 297 C320.80465534 301.00912299 324.68978156 305.05864508 328.37890625 309.41015625 C330.89383472 312.21910558 333.56835565 314.85108358 336.25 317.5 C339.49296534 320.70343506 342.67936119 323.89107187 345.625 327.375 C349.56326979 332.01688126 353.93212143 336.23266796 358.27685547 340.48974609 C358.85967285 341.06418457 359.44249023 341.63862305 360.04296875 342.23046875 C360.82450317 342.99460083 360.82450317 342.99460083 361.62182617 343.77416992 C363.62790125 345.90056739 365.4238054 348.21725675 367.25 350.5 C367.58 253.81 367.91 157.12 368.25 57.5 C447.87141164 57.5 447.87141164 57.5 462.375 65.0625 C463.03258301 65.40128174 463.69016602 65.74006348 464.36767578 66.08911133 C483.6717217 76.49596302 495.57584435 94.20457368 503.171875 114.359375 C506.62983841 126.0392011 506.5434315 138.49455505 506.51742554 150.55805969 C506.52117115 152.22872327 506.52577626 153.8993851 506.53115618 155.57004422 C506.54328866 160.11906079 506.54313736 164.66800329 506.54076743 169.21703231 C506.54035679 174.13946065 506.55142173 179.06186601 506.56088257 183.98428345 C506.57743876 193.61165338 506.58298963 203.23899881 506.58410732 212.8663818 C506.58506015 220.69625073 506.58918208 228.52611163 506.59550858 236.35597801 C506.61310455 258.58787693 506.62234976 280.81975661 506.62084763 303.05166254 C506.62072776 304.84644725 506.62072776 304.84644725 506.62060547 306.67749023 C506.62052371 307.87548511 506.62044195 309.07347998 506.62035771 310.30777773 C506.61954477 329.723376 506.63868863 349.1388967 506.6668822 368.55447254 C506.69564757 388.52235898 506.70942056 408.49020761 506.70769465 428.45811528 C506.70703212 439.65577328 506.71246453 450.85334989 506.73405075 462.05098915 C506.75231044 471.58350841 506.75657048 481.11590938 506.7430319 490.64843861 C506.73652703 495.50541972 506.73629491 500.36217419 506.7537384 505.21913338 C506.76958409 509.6772834 506.76648971 514.13502922 506.74917014 518.59317007 C506.74612539 520.19397536 506.74963565 521.79481171 506.76089029 523.39558033 C506.92399256 548.26875895 499.94442404 569.52813726 482.25 587.5 C468.60589518 601.17172447 452.6893426 606.64112131 433.8125 606.75 C432.47735352 606.7809375 432.47735352 606.7809375 431.11523438 606.8125 C424.91629125 606.84872465 420.00254252 605.74134303 414.25 603.5 C412.81527344 603.04367187 412.81527344 603.04367187 411.3515625 602.578125 C393.32306831 596.54966953 380.85088059 582.26893792 367.78100586 569.16137695 C365.56020693 566.93520138 363.33409034 564.71444368 361.10742188 562.49414062 C359.67155416 561.05761229 358.23599657 559.62077389 356.80078125 558.18359375 C356.14644608 557.53128281 355.4921109 556.87897186 354.81794739 556.20689392 C351.00324877 552.37304425 347.39155241 548.42019504 343.85588074 544.32826233 C341.73973242 541.91907081 339.5022612 539.65658671 337.21875 537.40625 C336.32542969 536.52066406 335.43210937 535.63507812 334.51171875 534.72265625 C333.60035156 533.82417969 332.68898438 532.92570313 331.75 532 C326.29854844 526.62565525 320.95109542 521.25871708 315.97070312 515.44335938 C312.73834114 511.79273489 309.22735389 508.4151472 305.75 505 C300.95072774 500.28658234 296.33486349 495.51956419 291.94726562 490.41992188 C289.19095817 487.30202748 286.22246483 484.40992127 283.25 481.5 C279.05929394 477.35736252 275.02309372 473.19060073 271.21875 468.6875 C268.35161324 465.50179249 265.29568121 462.51415242 262.25 459.5 C258.06155808 455.35491669 254.02329283 451.19083641 250.21875 446.6875 C246.76371232 442.84856925 243.03994538 439.27135096 239.36987305 435.6394043 C235.75272868 432.04546224 232.31354965 428.38272832 229.01953125 424.48828125 C226.25069444 421.37715998 223.25956889 418.48928921 220.29614258 415.56567383 C217.06968481 412.36582145 214.07054486 409.0491007 211.125 405.59375 C207.94237717 402.03982117 204.50568284 398.73790207 201.09375 395.40625 C198.92280511 393.2414551 196.90692064 390.97902408 194.90625 388.65625 C191.21711197 384.39583869 187.27160197 380.44455978 183.25 376.5 C178.63174047 371.97021287 174.2180272 367.37040516 169.99609375 362.46875 C167.06371668 359.16244565 163.90416989 356.09280628 160.75 353 C156.33914771 348.63627105 152.05236042 344.26559026 148.05078125 339.51953125 C145.10901517 336.22041397 141.93895884 333.14647634 138.7746582 330.06176758 C136.01204868 327.34713124 133.40326578 324.56031084 130.875 321.625 C127.19763486 317.37380425 123.26111825 313.43427691 119.25 309.5 C115.36483527 305.68926371 111.53425259 301.89183596 108 297.75 C103.07123714 292.02771749 97.62078924 286.80205885 92.25 281.5 C80.53667947 269.93657571 80.53667947 269.93657571 76.5 265.25 C72.94868315 261.15232671 69.08423902 257.33423902 65.25 253.5 C64.92 357.45 64.59 461.4 64.25 568.5 C18.05 568.5 -28.15 568.5 -75.75 568.5 C-75.81623841 473.48965773 -75.81623841 473.48965773 -75.83468628 426.57476807 C-75.83510045 425.52417915 -75.83510045 425.52417915 -75.83552299 424.45236621 C-75.84150907 409.23024875 -75.8470494 394.00813115 -75.85213066 378.78601335 C-75.85462529 371.32088387 -75.8572184 363.85575443 -75.85986328 356.390625 C-75.8601248 355.64776245 -75.86038632 354.90489989 -75.86065576 354.13952636 C-75.86917554 330.06949759 -75.884196 305.99947822 -75.90259444 281.92945514 C-75.92146986 257.19043802 -75.93377326 232.45142609 -75.93782998 207.71240189 C-75.93840627 204.21665668 -75.93905755 200.7209115 -75.93975449 197.22516632 C-75.93988933 196.53716646 -75.94002418 195.84916659 -75.94016311 195.14031825 C-75.94252479 184.07394703 -75.95179617 173.00759191 -75.96366407 161.94122725 C-75.97545293 150.81063658 -75.97977066 139.68005812 -75.97700275 128.5494605 C-75.97572127 122.5207621 -75.97769158 116.49211089 -75.98841095 110.46342087 C-75.99815819 104.94110591 -75.99862527 99.41886978 -75.99179779 93.89655116 C-75.9909542 91.90173285 -75.9934787 89.90690958 -75.99976636 87.912101 C-76.07476614 62.64274274 -71.05323229 40.50661733 -52.8125 22.0625 C-47.87143408 17.25455313 -42.64170946 13.08361709 -36.75 9.5 C-36.14414062 9.12617188 -35.53828125 8.75234375 -34.9140625 8.3671875 C-32.9021925 7.25143427 -30.88119 6.36916395 -28.75 5.5 C-27.70199219 5.05398438 -26.65398437 4.60796875 -25.57421875 4.1484375 C-17.09539735 0.86389004 -9.0727355 0.02965166 0 0 Z " fill="#229EFD" transform="translate(412.75,317.5)"/>
<path d="M0 0 C1.02859131 -0.00612305 2.05718262 -0.01224609 3.11694336 -0.01855469 C13.45406748 0.14997191 23.07278446 2.32749172 32.25 7.125 C32.92514648 7.47272461 33.60029297 7.82044922 34.29589844 8.17871094 C40.8295644 11.64498616 46.55580631 15.78767605 52.25 20.5 C53.80221658 21.64976283 53.80221658 21.64976283 55.38579106 22.82275319 C60.36592754 26.79969724 64.23503564 30.65093068 65.34855795 37.11879873 C65.91751402 42.83858415 65.79376967 48.55218291 65.6930542 54.29168701 C65.69829169 56.51295464 65.70880714 58.734215 65.72412419 60.95543599 C65.75089279 67.04052402 65.70305416 73.12306621 65.64278746 79.20782995 C65.59621906 85.10106863 65.60632151 90.994032 65.61496956 96.88740845 C65.63070506 108.93653823 65.59076095 120.98487597 65.51876068 133.03377533 C65.44768506 144.95858435 65.40155524 156.88306328 65.38852692 168.80808258 C65.38770204 169.55033958 65.38687717 170.29259658 65.38602729 171.05734621 C65.38196713 174.82710248 65.37835059 178.59685904 65.37490478 182.36661592 C65.34971925 209.04769485 65.26892586 235.7283432 65.15527344 262.40917969 C65.04500944 288.32452103 64.96003123 314.23974442 64.90917969 340.15527344 C64.90760137 340.95450909 64.90602306 341.75374475 64.90439692 342.57719966 C64.88857428 350.60366572 64.87326457 358.63013268 64.85833061 366.65660043 C64.82789843 383.00652653 64.7940434 399.35644495 64.75811768 415.70635986 C64.7564702 416.45805445 64.75482272 417.20974903 64.75312531 417.98422224 C64.70246186 441.01823983 64.63729485 464.05218451 64.55780029 487.08612061 C64.55335361 488.37626451 64.54890693 489.66640841 64.5443255 490.99564758 C64.45440201 516.83046245 64.3503762 542.66522402 64.25 568.5 C18.05 568.5 -28.15 568.5 -75.75 568.5 C-75.81623841 473.48965773 -75.81623841 473.48965773 -75.83468628 426.57476807 C-75.83510045 425.52417915 -75.83510045 425.52417915 -75.83552299 424.45236621 C-75.84150907 409.23024875 -75.8470494 394.00813115 -75.85213066 378.78601335 C-75.85462529 371.32088387 -75.8572184 363.85575443 -75.85986328 356.390625 C-75.8601248 355.64776245 -75.86038632 354.90489989 -75.86065576 354.13952636 C-75.86917554 330.06949759 -75.884196 305.99947822 -75.90259444 281.92945514 C-75.92146986 257.19043802 -75.93377326 232.45142609 -75.93782998 207.71240189 C-75.93840627 204.21665668 -75.93905755 200.7209115 -75.93975449 197.22516632 C-75.93988933 196.53716646 -75.94002418 195.84916659 -75.94016311 195.14031825 C-75.94252479 184.07394703 -75.95179617 173.00759191 -75.96366407 161.94122725 C-75.97545293 150.81063658 -75.97977066 139.68005812 -75.97700275 128.5494605 C-75.97572127 122.5207621 -75.97769158 116.49211089 -75.98841095 110.46342087 C-75.99815819 104.94110591 -75.99862527 99.41886978 -75.99179779 93.89655116 C-75.9909542 91.90173285 -75.9934787 89.90690958 -75.99976636 87.912101 C-76.07476614 62.64274274 -71.05323229 40.50661733 -52.8125 22.0625 C-47.87143408 17.25455313 -42.64170946 13.08361709 -36.75 9.5 C-36.14414062 9.12617188 -35.53828125 8.75234375 -34.9140625 8.3671875 C-32.9021925 7.25143427 -30.88119 6.36916395 -28.75 5.5 C-27.70199219 5.05398438 -26.65398437 4.60796875 -25.57421875 4.1484375 C-17.09539735 0.86389004 -9.0727355 0.02965166 0 0 Z " fill="#F3F3F3" transform="translate(412.75,317.5)"/>
<path d="M0 0 C8.9981194 -0.0933506 17.99606796 -0.16409066 26.99456882 -0.20724869 C31.17453375 -0.22797943 35.35416346 -0.25602546 39.53393555 -0.30175781 C43.5799627 -0.34574153 47.62567079 -0.36924569 51.67191887 -0.37950897 C53.20304311 -0.38680748 54.73415313 -0.40105448 56.26513863 -0.42292023 C69.61583589 -0.605729 82.1046201 1.29480123 94.125 7.5625 C94.78258301 7.90128174 95.44016602 8.24006348 96.11767578 8.58911133 C115.62357157 19.10478071 127.65075251 37.0582408 135.01953125 57.54296875 C137.48065789 66.22064636 137.13924863 75.02363326 137.12025452 83.97070312 C137.12069094 85.49965908 137.12156716 87.02861497 137.12284368 88.55757046 C137.12507468 92.74668601 137.12108647 96.9357759 137.11606562 101.12488818 C137.11174126 105.64694386 137.11320896 110.16899813 137.1139679 114.6910553 C137.11449187 122.52175234 137.11135826 130.35244104 137.10573006 138.18313599 C137.09759796 149.50496264 137.09499808 160.82678527 137.09374207 172.14861453 C137.09155424 190.51818671 137.08490144 208.88775445 137.07543945 227.25732422 C137.06625838 245.10009743 137.05918094 262.94286943 137.05493164 280.78564453 C137.05466892 281.88574411 137.05440619 282.98584369 137.05413551 284.11927962 C137.05283046 289.63823683 137.05156675 295.15719405 137.05032361 300.67615128 C137.03995937 346.4507706 137.02234836 392.22538507 137 438 C135.87835006 437.0434578 134.75738888 436.08610792 133.63671875 435.12841797 C132.70025513 434.32886185 132.70025513 434.32886185 131.74487305 433.51315308 C127.1008115 429.48582511 122.85467277 425.05461522 118.875 420.375 C114.91502775 415.75807383 110.58138227 411.52702232 106.23779297 407.27490234 C103.22881397 404.30988707 100.34951401 401.29673514 97.59375 398.09375 C93.77714387 393.67227996 89.66528078 389.59076771 85.5 385.5 C80.69049376 380.77653144 76.06306926 375.9993045 71.66601562 370.88867188 C69.07801034 367.95479015 66.29695629 365.23281366 63.5 362.5 C59.37785696 358.42935449 55.42276184 354.30998672 51.671875 349.890625 C48.99100126 346.85898273 46.07530129 344.0675006 43.1953125 341.2265625 C40.55993257 338.55366826 38.12233511 335.74631697 35.6796875 332.8984375 C34.01795424 331.02029247 32.28874475 329.25694484 30.5 327.5 C28.08667283 325.12957643 25.82728147 322.69263692 23.625 320.125 C20.33272876 316.30124102 16.79775316 312.78006658 13.20703125 309.23828125 C10.54368042 306.53721926 8.05981085 303.71488834 5.60546875 300.82421875 C4.00426541 298.92261567 4.00426541 298.92261567 1.93042016 297.20469356 C-0.40727707 294.53485715 -0.49812985 293.39848027 -0.49219131 289.90068436 C-0.50015551 288.86511847 -0.5081197 287.82955258 -0.51632524 286.76260591 C-0.50467387 285.62642752 -0.4930225 284.49024914 -0.48101807 283.31964111 C-0.48443577 282.11157547 -0.48785347 280.90350982 -0.49137473 279.65883613 C-0.49683042 276.30406165 -0.48430772 272.95021763 -0.46426249 269.59555554 C-0.44700648 265.9786869 -0.45283287 262.36184756 -0.45587158 258.74494934 C-0.45797013 252.47799097 -0.44540835 246.21119904 -0.42292023 239.94428253 C-0.39042733 230.88337547 -0.379996 221.82254898 -0.37496826 212.76158997 C-0.36621134 198.06122919 -0.33958502 183.36095713 -0.30175781 168.66064453 C-0.26504798 154.37972457 -0.23673119 140.0988287 -0.21972656 125.81787109 C-0.21867567 124.93775829 -0.21762477 124.05764549 -0.21654204 123.1508626 C-0.21132193 118.73564427 -0.20626709 114.32042577 -0.20129442 109.90520716 C-0.15982004 73.27007545 -0.08936082 36.63504463 0 0 Z " fill="#F7F7F7" transform="translate(781,375)"/>
<path d="M0 0 C0.33 0 0.66 0 1 0 C0.67 166.98 0.34 333.96 0 506 C-0.66 506.33 -1.32 506.66 -2 507 C-2.94683759 452.31721283 -3.17769264 397.64384389 -3.20018864 342.95364761 C-3.2030044 336.1611041 -3.20724794 329.3685619 -3.21169281 322.57601929 C-3.22380143 303.64237052 -3.23413675 284.70872273 -3.2375679 265.77507019 C-3.23778747 264.58091667 -3.23800703 263.38676314 -3.23823325 262.15642315 C-3.23845153 260.96022396 -3.23866981 259.76402476 -3.2388947 258.53157711 C-3.23933811 256.10943031 -3.23978467 253.68728352 -3.24023438 251.26513672 C-3.2404558 250.06379125 -3.24067723 248.86244578 -3.24090537 247.6246959 C-3.24488528 227.99873051 -3.26247273 208.3728015 -3.2855939 188.74685025 C-3.30932364 168.43700281 -3.3217694 148.12717376 -3.32293582 127.81731224 C-3.32384826 116.47580311 -3.32949734 105.13434237 -3.34775543 93.79284668 C-3.36317392 84.18596562 -3.36826406 74.57914817 -3.36001733 64.97225708 C-3.3561258 60.08465249 -3.35696929 55.19717609 -3.37107468 50.30958748 C-3.38389316 45.82734461 -3.38254756 41.34532532 -3.37048396 36.86308241 C-3.36854151 35.25326114 -3.37153717 33.64342356 -3.38032833 32.03362513 C-3.43647748 21.04702056 -2.2275126 10.75994904 0 0 Z " fill="#090C1A" transform="translate(337,378)"/>
<path d="M0 0 C0.33 0 0.66 0 1 0 C1.02505615 1.26706787 1.0501123 2.53413574 1.07592773 3.83959961 C1.16981996 8.52297779 1.27008435 13.2062013 1.37231445 17.8894043 C1.41573241 19.91964104 1.45740226 21.94991592 1.49731445 23.98022461 C1.55485146 26.89188151 1.61859278 29.80334514 1.68359375 32.71484375 C1.70030624 33.6283812 1.71701874 34.54191864 1.73423767 35.48313904 C1.4230685 39.56789316 1.4230685 39.56789316 3 43 C3.10217027 44.47318621 3.13518653 45.95123247 3.14044189 47.427948 C3.14615204 48.38420074 3.15186218 49.34045349 3.15774536 50.32568359 C3.15886322 51.38335938 3.15998108 52.44103516 3.16113281 53.53076172 C3.16609772 54.63799591 3.17106262 55.7452301 3.17617798 56.88601685 C3.19084335 60.5672466 3.19760875 64.24843327 3.203125 67.9296875 C3.2088727 70.4769796 3.21463047 73.02427167 3.22039795 75.57156372 C3.22957346 80.23536125 3.23586881 84.89914574 3.2388947 89.56295002 C3.24337604 96.43293814 3.26092468 103.30272736 3.2898953 110.17265499 C3.31409479 116.11695543 3.32183798 122.06120617 3.32357025 128.00555801 C3.32660565 130.53739632 3.3346638 133.06923361 3.34775543 135.60103989 C3.36473768 139.13766451 3.3629547 142.6738008 3.35644531 146.21044922 C3.3656601 147.26407654 3.37487488 148.31770386 3.3843689 149.40325928 C3.37879974 150.36515167 3.37323059 151.32704407 3.36749268 152.31808472 C3.36895924 153.15469572 3.3704258 153.99130672 3.3719368 154.85326958 C3 157 3 157 0 160 C0 107.2 0 54.4 0 0 Z " fill="#091556" transform="translate(919,695)"/>
<path d="M0 0 C0.99 0.33 1.98 0.66 3 1 C-2.82671276 6.3174149 -8.79251186 11.29780447 -15.125 16 C-15.97900391 16.63591064 -16.83300781 17.27182129 -17.71289062 17.92700195 C-34.28230061 30.1878262 -51.14828803 41.69082043 -69 52 C-70.70192425 52.99461829 -72.4037459 53.98941216 -74.10546875 54.984375 C-90.30446247 64.39973515 -106.85655204 73.14564468 -123.75 81.25 C-124.54229004 81.63309326 -125.33458008 82.01618652 -126.15087891 82.41088867 C-131.63719914 85 -131.63719914 85 -135 85 C-133.64806299 82.29612599 -132.13555648 81.88475363 -129.4375 80.5625 C-128.61121094 80.15128906 -127.78492188 79.74007813 -126.93359375 79.31640625 C-124.68508773 78.30742285 -122.48939989 77.43915503 -120.17578125 76.609375 C-115.81835527 75.00389945 -111.81942156 72.91077995 -107.75 70.6875 C-106.26237325 69.88550353 -104.77408745 69.08472837 -103.28515625 68.28515625 C-102.56086426 67.89602051 -101.83657227 67.50688477 -101.09033203 67.10595703 C-97.2461871 65.07208918 -93.33490245 63.17847198 -89.41796875 61.2890625 C-86.96200004 60.06826067 -86.96200004 60.06826067 -84.86328125 58.3359375 C-83 57 -83 57 -80 57 C-80 56.34 -80 55.68 -80 55 C-78.865625 54.46375 -77.73125 53.9275 -76.5625 53.375 C-71.75988915 50.97792968 -67.42853946 48.01665319 -63 45 C-61.54843426 44.03144655 -60.09043726 43.07243471 -58.625 42.125 C-57.99851562 41.71507812 -57.37203125 41.30515625 -56.7265625 40.8828125 C-55 40 -55 40 -52 40 C-52 39.34 -52 38.68 -52 38 C-49.09451118 35.95830515 -47.59857954 35 -44 35 C-43.67 34.01 -43.34 33.02 -43 32 C-40 30 -40 30 -37 30 C-37 29.34 -37 28.68 -37 28 C-36.01 28 -35.02 28 -34 28 C-34 27.34 -34 26.68 -34 26 C-32.68 25.67 -31.36 25.34 -30 25 C-30 24.34 -30 23.68 -30 23 C-25.61538462 20 -25.61538462 20 -23 20 C-23 19.34 -23 18.68 -23 18 C-22.01 18 -21.02 18 -20 18 C-20 17.34 -20 16.68 -20 16 C-19.34 16 -18.68 16 -18 16 C-18 15.34 -18 14.68 -18 14 C-17.01 14 -16.02 14 -15 14 C-15 13.34 -15 12.68 -15 12 C-13.26451831 10.55473264 -11.46024037 9.1912778 -9.625 7.875 C-8.62726563 7.15054687 -7.62953125 6.42609375 -6.6015625 5.6796875 C-4 4 -4 4 -2 4 C-1.34 2.68 -0.68 1.36 0 0 Z " fill="#1130B6" transform="translate(993,1077)"/>
<path d="M0 0 C0.66 0 1.32 0 2 0 C1.59522236 5.1271835 -0.33596835 8.82397542 -2.67578125 13.2890625 C-4.00278652 16.00570456 -5.01929475 18.70444471 -6 21.5625 C-7.51810292 25.92013147 -9.3807362 29.78168522 -11.75390625 33.734375 C-13.01956617 36.03557485 -14.0076189 38.39453125 -15.02416992 40.81298828 C-22.92383147 58.51755875 -32.86914057 75.50694822 -43 92 C-43.50772949 92.82967285 -44.01545898 93.6593457 -44.53857422 94.51416016 C-51.59181164 105.99464651 -59.11246717 117.07772492 -67 128 C-67.66 127.34 -68.32 126.68 -69 126 C-68.34 126 -67.68 126 -67 126 C-66.67 124.68 -66.34 123.36 -66 122 C-65.34 122 -64.68 122 -64 122 C-63.67 120.35 -63.34 118.7 -63 117 C-61.515 116.505 -61.515 116.505 -60 116 C-60 115.01 -60 114.02 -60 113 C-59.34 113 -58.68 113 -58 113 C-58 112.01 -58 111.02 -58 110 C-57.34 110 -56.68 110 -56 110 C-55.34 108.02 -54.68 106.04 -54 104 C-53.34 104 -52.68 104 -52 104 C-52 103.01 -52 102.02 -52 101 C-51.34 101 -50.68 101 -50 101 C-49.89558594 100.28457031 -49.79117187 99.56914063 -49.68359375 98.83203125 C-48.92477733 95.68836323 -47.73506294 93.44784227 -46.0625 90.6875 C-45.53785156 89.80449219 -45.01320313 88.92148437 -44.47265625 88.01171875 C-43.98667969 87.34785156 -43.50070312 86.68398438 -43 86 C-42.34 86 -41.68 86 -41 86 C-40.67 84.35 -40.34 82.7 -40 81 C-39.34 81 -38.68 81 -38 81 C-37.89558594 80.28328125 -37.79117187 79.5665625 -37.68359375 78.828125 C-36.92654929 75.69612391 -35.74143155 73.49211802 -34.0625 70.75 C-33.53785156 69.87859375 -33.01320313 69.0071875 -32.47265625 68.109375 C-31 66 -31 66 -29 65 C-29 63.68 -29 62.36 -29 61 C-28.34 61 -27.68 61 -27 61 C-26.87995605 60.26571777 -26.75991211 59.53143555 -26.63623047 58.77490234 C-26.00946492 56.04128099 -25.15480832 54.05422305 -23.8203125 51.6015625 C-23.38589844 50.79203125 -22.95148438 49.9825 -22.50390625 49.1484375 C-22.04886719 48.31570313 -21.59382813 47.48296875 -21.125 46.625 C-18.16184478 41.15981457 -15.37377519 35.75422991 -13 30 C-12.21146901 28.17572476 -11.41946844 26.35294733 -10.625 24.53125 C-10.19703125 23.54769531 -9.7690625 22.56414063 -9.328125 21.55078125 C-8.44270833 19.51692708 -7.55729167 17.48307292 -6.671875 15.44921875 C-4.43369734 10.30545504 -2.2027385 5.15904543 0 0 Z " fill="#1032B9" transform="translate(1169,836)"/>
<path d="M0 0 C0.33 0 0.66 0 1 0 C1.78585644 55.83902067 1.78585644 55.83902067 -0.875 82.375 C-0.96213257 83.24943756 -1.04926514 84.12387512 -1.13903809 85.02481079 C-2.01140625 93.57180642 -3.08807571 102.04533222 -4.58007812 110.50878906 C-5.15086858 113.8950366 -5.48193664 117.26925686 -5.8125 120.6875 C-7.03852577 132.26068957 -9.60017251 143.6248177 -12 155 C-12.33 155 -12.66 155 -13 155 C-13.41775509 146.83056713 -12.47671469 139.3278846 -10.859375 131.3359375 C-8.67663713 120.54570617 -7.12813497 109.61434616 -5.8125 98.6875 C-5.72863037 98.00051025 -5.64476074 97.31352051 -5.55834961 96.60571289 C-5.20994627 93.57456629 -5.00125026 90.63534089 -5.01171875 87.58203125 C-5 85 -5 85 -4 84 C-3.7688199 81.48323327 -3.59663561 78.9873602 -3.46484375 76.46484375 C-3.42186661 75.71159317 -3.37888947 74.95834259 -3.33460999 74.18226624 C-3.19785278 71.76756711 -3.06761019 69.35256554 -2.9375 66.9375 C-2.84613078 65.30401248 -2.75433947 63.67054851 -2.66210938 62.03710938 C-2.43650067 58.02499685 -2.21673536 54.01260125 -2 50 C-1.67 50 -1.34 50 -1 50 C-0.67 33.5 -0.34 17 0 0 Z " fill="#27398F" transform="translate(1210,597)"/>
<path d="M0 0 C4.58357376 0.13882854 9.16678696 0.28726748 13.75 0.4375 C15.05195312 0.47681641 16.35390625 0.51613281 17.6953125 0.55664062 C18.94570313 0.59853516 20.19609375 0.64042969 21.484375 0.68359375 C22.63647461 0.72025146 23.78857422 0.75690918 24.97558594 0.79467773 C28 1 28 1 29.98095703 1.51831055 C32.94495332 2.2254405 35.77662529 2.06602604 38.8203125 2.0234375 C45.57180727 1.96623062 52.30617186 2.08706942 59.0546875 2.2890625 C61.00780941 2.34386041 62.96093445 2.39854665 64.9140625 2.453125 C67.90907589 2.53782449 70.90381775 2.62594011 73.8984375 2.72363281 C76.84615361 2.81838083 79.79398493 2.89862912 82.7421875 2.9765625 C83.62470184 3.00875885 84.50721619 3.0409552 85.41647339 3.0741272 C90.7639003 3.20124893 95.49424517 2.65867092 100.68484497 1.34066772 C103.36177731 0.94676562 105.39286831 1.34033475 108 2 C108 2.66 108 3.32 108 4 C98.86648645 4.83111023 89.81353627 5.15981419 80.64453125 5.16796875 C79.29050159 5.17120026 77.93647225 5.17456556 76.58244324 5.17805481 C73.75620724 5.18399479 70.93000155 5.18590045 68.10375977 5.18530273 C65.26612888 5.18522214 62.42866173 5.19206657 59.59106445 5.20581055 C16.99157795 5.40899107 16.99157795 5.40899107 -1 2 C-0.67 1.34 -0.34 0.68 0 0 Z " fill="#122176" transform="translate(563,1206)"/>
<path d="M0 0 C-3.60423897 2.40282598 -7.17108436 3.20634521 -11.3203125 4.20703125 C-12.1587973 4.41280792 -12.9972821 4.61858459 -13.86117554 4.83059692 C-16.6136005 5.50069793 -19.36874141 6.15835437 -22.125 6.8125 C-23.53857788 7.14956467 -23.53857788 7.14956467 -24.98071289 7.49343872 C-42.55854982 11.65865906 -60.08120358 14.75112936 -78 17 C-79.25441895 17.16081055 -80.50883789 17.32162109 -81.80126953 17.48730469 C-103.18085319 20.19924351 -103.18085319 20.19924351 -112 20 C-112 19.34 -112 18.68 -112 18 C-107.58665845 17.17637898 -103.29900553 16.81643995 -98.81640625 16.6171875 C-90.24215322 16.15288116 -81.84876911 14.91544272 -73.3815918 13.52587891 C-70.93727654 13.12496335 -68.49135935 12.73538982 -66.04492188 12.34765625 C-56.31210303 10.7901018 -46.65099538 9.0026214 -37 7 C-35.73410034 6.75382935 -35.73410034 6.75382935 -34.44262695 6.50268555 C-31.70325595 5.93893093 -29.00102598 5.27331582 -26.2890625 4.58984375 C-24.66871094 4.18862305 -24.66871094 4.18862305 -23.015625 3.77929688 C-20.76164701 3.2196975 -18.50902142 2.65462144 -16.2578125 2.08398438 C-10.70915528 0.71993947 -5.71952668 -0.38734547 0 0 Z " fill="#15298D" transform="translate(784,1189)"/>
<path d="M0 0 C1.11013682 3.33041045 0.88835376 4.34472102 0.06640625 7.6640625 C-0.16651123 8.60950928 -0.39942871 9.55495605 -0.6394043 10.52905273 C-0.90277588 11.55071533 -1.16614746 12.57237793 -1.4375 13.625 C-1.7053833 14.68082275 -1.9732666 15.73664551 -2.24926758 16.82446289 C-5.54944367 29.53337265 -9.63668502 41.98946388 -13.81689453 54.43139648 C-15.01420898 57.99850721 -16.187177 61.56769045 -17.28125 65.16796875 C-17.48363281 65.83376953 -17.68601562 66.49957031 -17.89453125 67.18554688 C-18.30142546 68.53092288 -18.70502211 69.87730021 -19.10546875 71.22460938 C-20.377302 75.38439519 -21.94866666 79.16567635 -24 83 C-24.66 83 -25.32 83 -26 83 C-24.29012778 77.00950064 -22.37987288 71.09676328 -20.36328125 65.203125 C-14.85814855 49.07562676 -9.65630575 32.9890163 -5.49926758 16.45605469 C-4.04973008 10.71915842 -2.56521913 5.34095776 0 0 Z " fill="#0B249C" transform="translate(1196,752)"/>
<path d="M0 0 C-7.42380428 3.83504581 -15.33125665 6.78426408 -23.09765625 9.8515625 C-25.31909088 10.73056893 -27.53324337 11.62331365 -29.74609375 12.5234375 C-38.824607 16.17656123 -48.00299376 19.41994986 -57.3125 22.4375 C-58.39217041 22.79166992 -59.47184082 23.14583984 -60.58422852 23.51074219 C-61.60444092 23.8359082 -62.62465332 24.16107422 -63.67578125 24.49609375 C-65.0357019 24.93199829 -65.0357019 24.93199829 -66.4230957 25.37670898 C-69.04720418 26.01141755 -71.31140273 26.11660583 -74 26 C-72.68 25.67 -71.36 25.34 -70 25 C-70 24.34 -70 23.68 -70 23 C-67.96185767 22.32263519 -65.91929445 21.65856466 -63.875 21 C-62.73804688 20.62875 -61.60109375 20.2575 -60.4296875 19.875 C-57.12104059 19.03088051 -54.39471984 18.83490724 -51 19 C-51 18.34 -51 17.68 -51 17 C-49.02 17 -47.04 17 -45 17 C-45 16.34 -45 15.68 -45 15 C-44.24493164 14.72325439 -43.48986328 14.44650879 -42.71191406 14.16137695 C-39.2236153 12.88110843 -35.73680701 11.59682547 -32.25 10.3125 C-30.46916016 9.65991211 -30.46916016 9.65991211 -28.65234375 8.99414062 C-21.89905831 6.50317468 -15.26443447 3.8860264 -8.70996094 0.90698242 C-5.6674842 -0.11128794 -3.18726441 -0.16252589 0 0 Z " fill="#1A34A7" transform="translate(858,1163)"/>
<path d="M0 0 C1.14637939 0.00193359 2.29275879 0.00386719 3.47387695 0.00585938 C19.07142197 0.0802367 34.66187726 0.61109082 50.25 1.125 C50.25 1.785 50.25 2.445 50.25 3.125 C27.15 3.125 4.05 3.125 -19.75 3.125 C-19.42 2.465 -19.09 1.805 -18.75 1.125 C-12.57015221 -0.22364082 -6.29830147 -0.0260318 0 0 Z " fill="#0F1225" transform="translate(799.75,371.875)"/>
<path d="M0 0 C0.99 1.32 1.98 2.64 3 4 C2.67 4.66 2.34 5.32 2 6 C1.92490795 8.68341437 1.90879826 11.34070905 1.9375 14.0234375 C1.94605471 15.69327753 1.95451465 17.36311805 1.96289062 19.03295898 C1.96909424 19.90701385 1.97529785 20.78106873 1.98168945 21.68161011 C2.080053 36.15039572 2.05148424 50.5608682 1 65 C0.34 64.67 -0.32 64.34 -1 64 C-1.20638953 18.39744028 -1.20638953 18.39744028 0 0 Z " fill="#111521" transform="translate(43,591)"/>
<path d="M0 0 C0.33 0 0.66 0 1 0 C1.07597749 6.35368197 1.12856897 12.70724709 1.16479492 19.0612793 C1.17989444 21.22343321 1.20037571 23.38555643 1.22631836 25.54760742 C1.26265017 28.652909 1.27971462 31.75780614 1.29296875 34.86328125 C1.30845261 35.83211746 1.32393646 36.80095367 1.33988953 37.79914856 C1.34011612 38.6998558 1.34034271 39.60056305 1.34057617 40.52856445 C1.34723801 41.32132278 1.35389984 42.11408112 1.36076355 42.93086243 C1 45 1 45 -2 48 C-2 33.81 -2 19.62 -2 5 C-1.67 5 -1.34 5 -1 5 C-0.67 3.35 -0.34 1.7 0 0 Z " fill="#041866" transform="translate(921,807)"/>
<path d="M0 0 C1.75 0.1875 1.75 0.1875 4 1 C4.5775 1.7425 5.155 2.485 5.75 3.25 C16.06108024 15.8524314 37.17176517 21.03838095 52.625 22.625 C54.08288823 22.75508849 55.54107996 22.88204476 57 23 C57 23.33 57 23.66 57 24 C48.07747851 24.29559274 40.33736675 24.54911759 32 21 C31.14277344 20.7215625 30.28554688 20.443125 29.40234375 20.15625 C17.82900377 16.37985777 8.52578576 9.61825632 0 1 C0 0.67 0 0.34 0 0 Z " fill="#3DD8EA" transform="translate(795,900)"/>
<path d="M0 0 C3.31460693 1.10486898 3.96976106 1.87623086 6.125 4.5 C12.72020822 12.76067772 12.72020822 12.76067772 21 19 C21.4125 19.7425 21.825 20.485 22.25 21.25 C23.99353775 23.98984504 25.84136311 25.61455865 28.37890625 27.6015625 C30.78171668 29.67434837 32.71209203 32.08484499 34.703125 34.546875 C35.95780703 36.13287611 35.95780703 36.13287611 38 37 C37.67 38.32 37.34 39.64 37 41 C36.27296875 40.20078125 35.5459375 39.4015625 34.796875 38.578125 C29.05653863 32.29815654 23.21947566 26.16135478 17.16455078 20.18408203 C13.78748575 16.83388128 10.61030273 13.37670838 7.53515625 9.75 C5.95446658 7.94809421 4.28668039 6.28917411 2.5625 4.625 C0 2 0 2 0 0 Z " fill="#25B6ED" transform="translate(676,776)"/>
<path d="M0 0 C4.58357376 0.13882854 9.16678696 0.28726748 13.75 0.4375 C15.05195312 0.47681641 16.35390625 0.51613281 17.6953125 0.55664062 C18.94570313 0.59853516 20.19609375 0.64042969 21.484375 0.68359375 C22.63647461 0.72025146 23.78857422 0.75690918 24.97558594 0.79467773 C27.49687085 0.96584343 29.57941691 1.35708328 32 2 C35.33290609 2.05660987 38.64862697 2.02275275 41.98046875 1.9609375 C46.10969546 1.91427957 49.95040249 2.18754157 54 3 C54 3.33 54 3.66 54 4 C14.94157589 4.41277905 14.94157589 4.41277905 -1 2 C-0.67 1.34 -0.34 0.68 0 0 Z " fill="#101F6D" transform="translate(563,1206)"/>
<path d="M0 0 C0.33 0 0.66 0 1 0 C1.53758381 9.3641625 -0.11881367 18.08142189 -2 27.1875 C-2.29002812 28.63066565 -2.57909735 30.07402436 -2.8671875 31.51757812 C-3.56710424 35.01400973 -4.27989122 38.50766393 -5 42 C-5.33 42 -5.66 42 -6 42 C-6.49468557 32.3261489 -5.01040496 23.39538247 -3 14 C-2.7107688 12.62243124 -2.4217042 11.2448275 -2.1328125 9.8671875 C-1.43451017 6.57519082 -0.72403855 3.28641613 0 0 Z " fill="#273D9E" transform="translate(1203,710)"/>
<path d="M0 0 C0.33 0 0.66 0 1 0 C1.96569323 4.22751972 2.92115163 8.45729338 3.875 12.6875 C4.14441406 13.86634766 4.41382813 15.04519531 4.69140625 16.25976562 C9.18637374 36.26785264 9.18637374 36.26785264 9 46 C8.34 46 7.68 46 7 46 C6.87882812 44.74703125 6.75765625 43.4940625 6.6328125 42.203125 C6.46395167 40.55204135 6.29465817 38.90100191 6.125 37.25 C6.04636719 36.425 5.96773437 35.6 5.88671875 34.75 C5.76103516 33.55117188 5.76103516 33.55117188 5.6328125 32.328125 C5.55949707 31.5949707 5.48618164 30.86181641 5.41064453 30.10644531 C4.96026476 27.79617381 4.09342431 26.07268347 3 24 C2.69140625 21.95703125 2.69140625 21.95703125 2.5625 19.8125 C2.26379282 16.38582139 1.5774296 13.53348788 0.375 10.3125 C-0.99885106 6.52943187 -1.11562433 3.95539535 0 0 Z " fill="#2C3673" transform="translate(1194,484)"/>
<path d="M0 0 C3.08203125 0.2421875 3.08203125 0.2421875 6.8125 0.875 C10.95468558 1.5646368 14.80843324 2.01549563 19 2 C19.33 2.33 19.66 2.66 20 3 C21.68455421 3.15986982 23.37319344 3.27740595 25.0625 3.375 C30.2363589 3.78701748 34.25459924 4.94067514 39 7 C39 7.33 39 7.66 39 8 C29.78991781 7.43271233 20.82691967 6.06587202 11.75 4.4375 C10.40763884 4.20067957 9.06519122 3.96434872 7.72265625 3.72851562 C4.48089221 3.15712556 1.24007618 2.58087103 -2 2 C-1.34 1.34 -0.68 0.68 0 0 Z " fill="#132061" transform="translate(511,1198)"/>
<path d="M0 0 C0.66 0 1.32 0 2 0 C2.18175781 0.84884766 2.18175781 0.84884766 2.3671875 1.71484375 C2.53476563 2.44832031 2.70234375 3.18179688 2.875 3.9375 C3.03742188 4.66839844 3.19984375 5.39929688 3.3671875 6.15234375 C3.82961523 8.20700294 3.82961523 8.20700294 6 9 C7.10729455 10.92198795 8.13873983 12.88818603 9.125 14.875 C9.66382812 15.94492187 10.20265625 17.01484375 10.7578125 18.1171875 C12 21 12 21 12 24 C12.66 24 13.32 24 14 24 C14 25.32 14 26.64 14 28 C14.66 28 15.32 28 16 28 C16.33 29.98 16.66 31.96 17 34 C17.66 34 18.32 34 19 34 C19.33 35.32 19.66 36.64 20 38 C19.01 38.495 19.01 38.495 18 39 C15.42886685 33.93181333 12.86559443 28.85975895 10.30957031 23.78393555 C9.43868239 22.057259 8.56564487 20.33166492 7.69042969 18.60717773 C6.43379969 16.13024888 5.18491623 13.64954788 3.9375 11.16796875 C3.54377197 10.39599655 3.15004395 9.62402435 2.74438477 8.82865906 C2.38401123 8.10813858 2.0236377 7.3876181 1.65234375 6.64526367 C1.33257568 6.01238937 1.01280762 5.37951508 0.68334961 4.72746277 C0 3 0 3 0 0 Z " fill="#121524" transform="translate(95,866)"/>
<path d="M0 0 C7.85352246 1.30100323 15.50090736 3.06406625 23.1875 5.125 C24.23486328 5.40214844 25.28222656 5.67929687 26.36132812 5.96484375 C28.90858037 6.6394585 31.4547476 7.31788647 34 8 C34 8.99 34 9.98 34 11 C32.98292969 10.70996094 32.98292969 10.70996094 31.9453125 10.4140625 C27.19347727 9.08460167 22.47579527 7.85067682 17.625 6.9375 C15.01206135 6.44449271 12.84899975 5.93888085 10.375 4.9375 C6.96116855 3.58993495 3.64691948 3.37087317 0 3 C0 2.01 0 1.02 0 0 Z " fill="#111420" transform="translate(750,48)"/>
<path d="M0 0 C6.36590304 5.24458586 12.13570612 11.02097322 17.9375 16.875 C18.91708237 17.85960919 19.89689837 18.843986 20.87695312 19.828125 C23.25360252 22.21648203 25.62787356 24.60715212 28 27 C23.83547336 27 21.85410319 24.76421017 19 22 C17.64843325 20.34808509 16.31037934 18.68477344 15 17 C14.34 16.67 13.68 16.34 13 16 C13 15.34 13 14.68 13 14 C12.4225 13.773125 11.845 13.54625 11.25 13.3125 C8.42085466 11.66216522 7.01725404 9.56741423 5 7 C4.0925 6.29875 3.185 5.5975 2.25 4.875 C1.13625 3.946875 1.13625 3.946875 0 3 C0 2.01 0 1.02 0 0 Z " fill="#0641EA" transform="translate(478,352)"/>
<path d="M0 0 C1.98 0 3.96 0 6 0 C1.0279553 3.31469647 -4.73129285 4.74767538 -10.375 6.625 C-11.60734375 7.04523438 -12.8396875 7.46546875 -14.109375 7.8984375 C-15.29789063 8.29546875 -16.48640625 8.6925 -17.7109375 9.1015625 C-18.79681152 9.46588379 -19.88268555 9.83020508 -21.00146484 10.20556641 C-23.82846642 10.9545538 -26.09558733 11.16356252 -29 11 C-27.68 10.67 -26.36 10.34 -25 10 C-25 9.34 -25 8.68 -25 8 C-22.96185767 7.32263519 -20.91929445 6.65856466 -18.875 6 C-17.73804688 5.62875 -16.60109375 5.2575 -15.4296875 4.875 C-12.12104059 4.03088051 -9.39471984 3.83490724 -6 4 C-6 3.34 -6 2.68 -6 2 C-4.02 2 -2.04 2 0 2 C0 1.34 0 0.68 0 0 Z " fill="#2D44AA" transform="translate(813,1178)"/>
<path d="M0 0 C1.12109375 1.68359375 1.12109375 1.68359375 2 4 C-0.52959595 13.34587244 -6.99565747 23.39415398 -14 30 C-14.66 29.67 -15.32 29.34 -16 29 C-15.49210938 28.34515625 -14.98421875 27.6903125 -14.4609375 27.015625 C-8.12531768 18.61558973 -3.18006434 10.06029699 0 0 Z " fill="#08327D" transform="translate(915,871)"/>
<path d="M0 0 C0.66 0.33 1.32 0.66 2 1 C-1.15461601 5.33464694 -4.71415282 8.35382422 -8.9375 11.5625 C-10.15505342 12.50116525 -11.37250315 13.43996501 -12.58984375 14.37890625 C-13.16718262 14.82121582 -13.74452148 15.26352539 -14.33935547 15.71923828 C-16.58341281 17.44995348 -18.79409124 19.22104132 -21 21 C-21 18 -21 18 -19.19921875 16.0546875 C-18.37035156 15.33539063 -17.54148438 14.61609375 -16.6875 13.875 C-15.33591797 12.69744141 -15.33591797 12.69744141 -13.95703125 11.49609375 C-9.35012413 7.60730425 -4.69824071 3.77824301 0 0 Z " fill="#171C29" transform="translate(267,159)"/>
<path d="M0 0 C-0.33 0.66 -0.66 1.32 -1 2 C-3.16137695 2.57836914 -3.16137695 2.57836914 -5.98828125 3.03515625 C-7.00470703 3.20466797 -8.02113281 3.37417969 -9.06835938 3.54882812 C-10.13892578 3.71833984 -11.20949219 3.88785156 -12.3125 4.0625 C-14.41295003 4.40639596 -16.51321827 4.75140455 -18.61328125 5.09765625 C-19.54954346 5.24726807 -20.48580566 5.39687988 -21.45043945 5.55102539 C-23.94690389 5.95007237 -23.94690389 5.95007237 -26.13354492 6.58374023 C-28.88587517 7.19756928 -31.27069739 6.55826644 -34 6 C-34 5.67 -34 5.34 -34 5 C-30.1234573 4.28113037 -26.24569194 3.56930273 -22.36669922 2.86376953 C-20.4039504 2.50528758 -18.44219945 2.14135597 -16.48046875 1.77734375 C-15.23652344 1.55175781 -13.99257813 1.32617188 -12.7109375 1.09375 C-11.56931152 0.88427734 -10.42768555 0.67480469 -9.25146484 0.45898438 C-6.11683829 0.01649317 -3.16047405 -0.08372117 0 0 Z " fill="#141823" transform="translate(547,40)"/>
<path d="M0 0 C0.66 0 1.32 0 2 0 C1.59590225 5.11857149 -0.32586458 8.81090237 -2.66796875 13.265625 C-4.46405364 16.95260278 -5.74103442 20.75672089 -7.0078125 24.65234375 C-8.02222486 27.05258717 -9.03801782 28.32067627 -11 30 C-10.42133149 25.73058929 -9.39736392 22.12543909 -7.71484375 18.1640625 C-7.26689453 17.10058594 -6.81894531 16.03710938 -6.35742188 14.94140625 C-5.88884766 13.84699219 -5.42027344 12.75257813 -4.9375 11.625 C-4.46505859 10.50738281 -3.99261719 9.38976562 -3.50585938 8.23828125 C-2.3429918 5.48968515 -1.17421814 2.74376168 0 0 Z " fill="#1B37B2" transform="translate(1169,836)"/>
<path d="M0 0 C0.66 0 1.32 0 2 0 C1.5875 1.216875 1.175 2.43375 0.75 3.6875 C-0.93731404 8.717606 -2.4456071 13.79563424 -3.9375 18.88671875 C-5.0335561 22.09832431 -6.41778448 25.00188139 -8 28 C-8.66 28 -9.32 28 -10 28 C-8.19680404 21.56227407 -6.08795184 15.24368522 -3.875 8.9375 C-3.60929199 8.1751001 -3.34358398 7.4127002 -3.06982422 6.62719727 C-1.12175378 1.12175378 -1.12175378 1.12175378 0 0 Z " fill="#1E39AE" transform="translate(1180,807)"/>
<path d="M0 0 C0.66 0.33 1.32 0.66 2 1 C1.9278125 1.66386719 1.855625 2.32773437 1.78125 3.01171875 C1.6884375 3.89472656 1.595625 4.77773438 1.5 5.6875 C1.4071875 6.55761719 1.314375 7.42773438 1.21875 8.32421875 C0.96360984 10.99767825 0.96360984 10.99767825 1 13.6796875 C1 16 1 16 0.5 18.4375 C-0.06601697 21.33833697 -0.06856689 24.05162352 0 27 C-0.99 26.67 -1.98 26.34 -3 26 C-2.88494258 23.16595415 -2.75822275 20.33320381 -2.625 17.5 C-2.5940625 16.70851563 -2.563125 15.91703125 -2.53125 15.1015625 C-2.27143777 9.81871388 -1.43666294 5.09256131 0 0 Z " fill="#111521" transform="translate(47,551)"/>
<path d="M0 0 C5.47510027 8.2126504 9 21.15250357 9 31 C8.01 30.67 7.02 30.34 6 30 C5.34 24.39 4.68 18.78 4 13 C3.34 13 2.68 13 2 13 C0.54815522 8.46298506 -0.23509196 4.81938524 0 0 Z " fill="#323A6D" transform="translate(1182,443)"/>
<path d="M0 0 C3.14148279 1.39394893 5.28556994 3.028819 7.71484375 5.44921875 C8.74448242 6.47499023 8.74448242 6.47499023 9.79492188 7.52148438 C10.50197266 8.23626953 11.20902344 8.95105469 11.9375 9.6875 C12.99227539 10.73067383 12.99227539 10.73067383 14.06835938 11.79492188 C18.20459284 15.94666137 21.7383469 20.12986043 25 25 C24.34 25.33 23.68 25.66 23 26 C22.45730469 25.30132813 21.91460938 24.60265625 21.35546875 23.8828125 C20.28232422 22.51769531 20.28232422 22.51769531 19.1875 21.125 C18.47980469 20.22007812 17.77210938 19.31515625 17.04296875 18.3828125 C15.04412259 15.83397044 15.04412259 15.83397044 12 14 C12 13.34 12 12.68 12 12 C11.4225 11.773125 10.845 11.54625 10.25 11.3125 C7.41025155 9.65598007 5.98500033 7.60531294 4 5 C3.2575 4.2575 2.515 3.515 1.75 2.75 C1.1725 2.1725 0.595 1.595 0 1 C0 0.67 0 0.34 0 0 Z " fill="#38E3FC" transform="translate(883,779)"/>
<path d="M0 0 C0.33 0 0.66 0 1 0 C2.17873007 7.59783842 1.8414219 12.89644525 -1 20 C-1.35440991 21.32788648 -1.69424498 22.6600736 -2 24 C-2.66 24 -3.32 24 -4 24 C-4.23952163 18.36375658 -3.38279585 13.51426608 -2 8.0625 C-1.80921875 7.28326172 -1.6184375 6.50402344 -1.421875 5.70117188 C-0.9550862 3.79900752 -0.47854864 1.89923991 0 0 Z " fill="#2C303B" transform="translate(59,479)"/>
<path d="M0 0 C0.33 0.99 0.66 1.98 1 3 C-1.38817162 4.8234216 -3.78461076 6.63365663 -6.1875 8.4375 C-7.19780273 9.2119043 -7.19780273 9.2119043 -8.22851562 10.00195312 C-11.75114064 12.63103423 -14.47096241 14.65702434 -19 15 C-15.22180665 10.99063612 -11.20415407 7.82729557 -6.6875 4.6875 C-6.04232422 4.23310547 -5.39714844 3.77871094 -4.73242188 3.31054688 C-3.15802858 2.20264048 -1.57944354 1.10069475 0 0 Z " fill="#1C202C" transform="translate(289,143)"/>
<path d="M0 0 C0 0.66 0 1.32 0 2 C-1.04800781 2.20496094 -2.09601563 2.40992188 -3.17578125 2.62109375 C-4.55470769 2.89312686 -5.93361283 3.16526791 -7.3125 3.4375 C-8.34793945 3.63956055 -8.34793945 3.63956055 -9.40429688 3.84570312 C-12.34289007 4.42774332 -15.15456685 5.05152228 -18 6 C-22.2430622 6.99305711 -24.22438104 7.12837267 -28 5 C-24.46082426 4.15584238 -20.91830859 3.32662306 -17.375 2.5 C-16.37597656 2.26152344 -15.37695312 2.02304687 -14.34765625 1.77734375 C-9.48858446 0.65106883 -5.02675656 -0.34312331 0 0 Z " fill="#31353F" transform="translate(513,46)"/>
<path d="M0 0 C0.33 0.99 0.66 1.98 1 3 C1.66 3 2.32 3 3 3 C3.06058594 3.61488281 3.12117188 4.22976563 3.18359375 4.86328125 C3.26738281 5.67152344 3.35117187 6.47976563 3.4375 7.3125 C3.51871094 8.11300781 3.59992187 8.91351562 3.68359375 9.73828125 C3.95265693 12.16087179 3.95265693 12.16087179 5 15 C4.67 15.99 4.34 16.98 4 18 C4.66 18.33 5.32 18.66 6 19 C6.75 20.875 6.75 20.875 7 23 C6.34 23.99 5.68 24.98 5 26 C4.3516711 23.77155786 3.70643631 21.5422154 3.0625 19.3125 C2.70285156 18.07113281 2.34320313 16.82976563 1.97265625 15.55078125 C0.49833156 10.16860797 -0.10977963 5.59876118 0 0 Z " fill="#0D111D" transform="translate(54,739)"/>
<path d="M0 0 C0 0.66 0 1.32 0 2 C-11.33439373 3.17759935 -22.6184852 3.10492107 -34 3 C-34 2.67 -34 2.34 -34 2 C-32.11667969 1.92652344 -32.11667969 1.92652344 -30.1953125 1.8515625 C-18.49167223 1.43533755 -18.49167223 1.43533755 -7.0078125 -0.6953125 C-4.47965881 -1.07896228 -2.46454765 -0.60969646 0 0 Z " fill="#1D2D81" transform="translate(671,1208)"/>
<path d="M0 0 C0.99 0.495 0.99 0.495 2 1 C2 2.98 2 4.96 2 7 C2.66 7 3.32 7 4 7 C4 12.94 4 18.88 4 25 C1.44744224 21.17116336 0.91006639 18.20132788 0.68359375 13.671875 C0.64169922 12.87265625 0.59980469 12.0734375 0.55664062 11.25 C0.51732422 10.425 0.47800781 9.6 0.4375 8.75 C0.39431641 7.90953125 0.35113281 7.0690625 0.30664062 6.203125 C0.20091457 4.13559329 0.09998705 2.06781719 0 0 Z " fill="#171A25" transform="translate(45,685)"/>
<path d="M0 0 C0.33 0.99 0.66 1.98 1 3 C-4.625 7 -4.625 7 -8 7 C-8 7.66 -8 8.32 -8 9 C-10.97 10.65 -13.94 12.3 -17 14 C-16 10 -16 10 -14.41772461 8.62792969 C-13.75264893 8.22993164 -13.08757324 7.83193359 -12.40234375 7.421875 C-11.68369141 6.98359375 -10.96503906 6.5453125 -10.22460938 6.09375 C-9.46986328 5.6503125 -8.71511719 5.206875 -7.9375 4.75 C-7.17888672 4.29109375 -6.42027344 3.8321875 -5.63867188 3.359375 C-3.7654589 2.22837849 -1.88611807 1.10929478 0 0 Z " fill="#1F242F" transform="translate(327,118)"/>
<path d="M0 0 C0.66 0 1.32 0 2 0 C3.25227484 1.47704212 4.50166522 2.95827399 5.68359375 4.4921875 C7.11764091 6.26762944 7.11764091 6.26762944 10 8 C10 8.66 10 9.32 10 10 C10.58265625 10.24492188 11.1653125 10.48984375 11.765625 10.7421875 C14.36302236 12.20435874 15.83975831 13.84740414 17.75 16.125 C18.36359375 16.84945312 18.9771875 17.57390625 19.609375 18.3203125 C20.06828125 18.87460937 20.5271875 19.42890625 21 20 C18 20 18 20 16.00708008 18.37939453 C15.26868896 17.63802246 14.53029785 16.89665039 13.76953125 16.1328125 C12.96708984 15.32972656 12.16464844 14.52664063 11.33789062 13.69921875 C10.50451172 12.84972656 9.67113281 12.00023437 8.8125 11.125 C7.96751953 10.28324219 7.12253906 9.44148437 6.25195312 8.57421875 C0 2.26675999 0 2.26675999 0 0 Z " fill="#2FD4F5" transform="translate(743,846)"/>
<path d="M0 0 C1.18857105 3.56571316 0.717232 4.94781941 -0.21484375 8.54296875 C-0.48876953 9.61611328 -0.76269531 10.68925781 -1.04492188 11.79492188 C-1.33947266 12.91447266 -1.63402344 14.03402344 -1.9375 15.1875 C-2.22818359 16.31865234 -2.51886719 17.44980469 -2.81835938 18.61523438 C-3.53823848 21.4121417 -4.26572486 24.20684393 -5 27 C-5.33 27 -5.66 27 -6 27 C-6.28069808 20.71668135 -5.3486249 15.57037466 -3.5625 9.5625 C-3.33240234 8.74845703 -3.10230469 7.93441406 -2.86523438 7.09570312 C-1.15620426 1.15620426 -1.15620426 1.15620426 0 0 Z " fill="#1F36A1" transform="translate(1196,752)"/>
<path d="M0 0 C0.33 0 0.66 0 1 0 C1.22162329 1.62324086 1.42689803 3.248721 1.625 4.875 C1.74101563 5.77992188 1.85703125 6.68484375 1.9765625 7.6171875 C1.98429687 8.40351562 1.99203125 9.18984375 2 10 C1.34 10.66 0.68 11.32 0 12 C-0.37004294 14.22658154 -0.37004294 14.22658154 -0.4140625 16.7890625 C-0.45273437 17.73007812 -0.49140625 18.67109375 -0.53125 19.640625 C-0.5621875 20.62546875 -0.593125 21.6103125 -0.625 22.625 C-0.66367187 23.61757813 -0.70234375 24.61015625 -0.7421875 25.6328125 C-0.8366314 28.08835385 -0.92219875 30.5438841 -1 33 C-1.33 33 -1.66 33 -2 33 C-2.05891984 29.37507033 -2.0939009 25.75026666 -2.125 22.125 C-2.14175781 21.11179687 -2.15851562 20.09859375 -2.17578125 19.0546875 C-2.21809062 12.45442651 -1.57671725 6.41174647 0 0 Z " fill="#2C2F39" transform="translate(44,580)"/>
<path d="M0 0 C0.66 0 1.32 0 2 0 C-0.77077441 6.14508385 -5.99369372 11.54994998 -11 16 C-11.66 16 -12.32 16 -13 16 C-11.80387967 11.06600366 -8.75466292 8.80704495 -4.97265625 5.74609375 C-2.91702063 4.05000274 -2.91702063 4.05000274 -1.37109375 1.78515625 C-0.91863281 1.19605469 -0.46617187 0.60695313 0 0 Z " fill="#3DEFF7" transform="translate(903,892)"/>
<path d="M0 0 C0.33 0.99 0.66 1.98 1 3 C-1.30279665 5.30279665 -3.75930075 7.36476586 -6.24609375 9.46484375 C-8.01210666 10.96619473 -8.01210666 10.96619473 -9.5546875 12.6171875 C-11.47286116 14.45241311 -13.51959659 15.12850691 -16 16 C-16.66 15.34 -17.32 14.68 -18 14 C-17.28714844 13.57589844 -16.57429687 13.15179687 -15.83984375 12.71484375 C-9.81611775 9.02602096 -4.70395184 5.2819118 0 0 Z " fill="#072A78" transform="translate(898,901)"/>
<path d="M0 0 C0.66 0 1.32 0 2 0 C-1.28038275 7.28413195 -7.21297974 13.57466851 -13 19 C-12.42676569 15.13066838 -10.61046448 12.84777943 -8 10 C-7.34 10 -6.68 10 -6 10 C-5.8453125 9.13375 -5.8453125 9.13375 -5.6875 8.25 C-4.89103535 5.64338842 -3.80934723 4.0264689 -2 2 C-1.34 2 -0.68 2 0 2 C0 1.34 0 0.68 0 0 Z " fill="#0A31C1" transform="translate(1087,980)"/>
<path d="M0 0 C3 0 3 0 4.47265625 1.3984375 C5.25962891 2.37683594 5.25962891 2.37683594 6.0625 3.375 C10.39820759 8.56668419 15.17704245 13.26437971 20 18 C19.67 18.99 19.34 19.98 19 21 C18.29875 20.2265625 17.5975 19.453125 16.875 18.65625 C11.82805671 13.10987426 6.75427527 7.64391774 1.36328125 2.42578125 C0 1 0 1 0 0 Z " fill="#106AEB" transform="translate(502,595)"/>
<path d="M0 0 C7.47394574 -0.37369729 13.82140651 0.95938459 21 3 C21 3.66 21 4.32 21 5 C13.76410027 4.39700836 7.00629124 2.8849413 0 1 C0 0.67 0 0.34 0 0 Z " fill="#1B2560" transform="translate(484,1193)"/>
<path d="M0 0 C3.06813137 4.60219706 2.25317679 9.22776249 1.5 14.5 C1.2525 15.7375 1.2525 15.7375 1 17 C0.34 17 -0.32 17 -1 17 C-1.02684679 14.35409986 -1.04676357 11.70846904 -1.0625 9.0625 C-1.07087891 8.30775391 -1.07925781 7.55300781 -1.08789062 6.77539062 C-1.09652441 4.85005687 -1.05224333 2.92464419 -1 1 C-0.67 0.67 -0.34 0.34 0 0 Z " fill="#191D29" transform="translate(44,656)"/>
<path d="M0 0 C2.88305128 0.59925491 4.99659057 1.45146232 7.453125 3.06640625 C8.071875 3.46923828 8.690625 3.87207031 9.328125 4.28710938 C9.96234375 4.70798828 10.5965625 5.12886719 11.25 5.5625 C11.8996875 5.98724609 12.549375 6.41199219 13.21875 6.84960938 C14.81578918 7.8947306 16.4083442 8.94669837 18 10 C16.1484375 10.609375 16.1484375 10.609375 14 11 C11.625 9.25 11.625 9.25 9 7 C7.02288349 5.95548562 5.02749004 4.94301862 3 4 C3 3.34 3 2.68 3 2 C2.01 2 1.02 2 0 2 C0 1.34 0 0.68 0 0 Z " fill="#11162A" transform="translate(926,120)"/>
<path d="M0 0 C3.36016893 1.12005631 4.69064913 2.37211797 7 5 C7 5.66 7 6.32 7 7 C7.66 7 8.32 7 9 7 C9 7.66 9 8.32 9 9 C9.66 9 10.32 9 11 9 C12.7143618 10.95927063 14.38405168 12.95880212 16 15 C15.67 15.66 15.34 16.32 15 17 C12.49195282 14.54976242 9.9949924 12.08852402 7.5 9.625 C6.78457031 8.92632813 6.06914063 8.22765625 5.33203125 7.5078125 C4.65527344 6.8375 3.97851562 6.1671875 3.28125 5.4765625 C2.65283203 4.85861816 2.02441406 4.24067383 1.37695312 3.60400391 C0 2 0 2 0 0 Z " fill="#36E3F8" transform="translate(776,880)"/>
<path d="M0 0 C3.04332765 1.3584202 5.12309151 2.88463024 7.453125 5.2578125 C8.071875 5.88300781 8.690625 6.50820313 9.328125 7.15234375 C9.96234375 7.80332031 10.5965625 8.45429687 11.25 9.125 C11.8996875 9.78371094 12.549375 10.44242188 13.21875 11.12109375 C14.81711727 12.74296643 16.41061897 14.3693281 18 16 C14.06830895 16 12.83572772 14.60580385 10 12 C10 11.34 10 10.68 10 10 C9.34 10 8.68 10 8 10 C6.30859375 8.3203125 6.30859375 8.3203125 4.4375 6.125 C3.50744141 5.04605469 3.50744141 5.04605469 2.55859375 3.9453125 C1 2 1 2 0 0 Z " fill="#3DDBFC" transform="translate(859,754)"/>
<path d="M0 0 C3.85195777 1.56931613 6.11743947 4.05040318 9 7 C11.30166997 9.03793695 13.64451198 11.02464837 16 13 C15.67 14.32 15.34 15.64 15 17 C12.68374133 14.5451846 10.37264795 12.08556574 8.0625 9.625 C7.40314453 8.92632813 6.74378906 8.22765625 6.06445312 7.5078125 C5.43603516 6.8375 4.80761719 6.1671875 4.16015625 5.4765625 C3.57886963 4.85861816 2.99758301 4.24067383 2.39868164 3.60400391 C1 2 1 2 0 0 Z " fill="#0F61E8" transform="translate(482,574)"/>
<path d="M0 0 C-0.33 0.99 -0.66 1.98 -1 3 C-1.93972656 2.98259766 -1.93972656 2.98259766 -2.8984375 2.96484375 C-4.12433594 2.95130859 -4.12433594 2.95130859 -5.375 2.9375 C-6.59316406 2.92009766 -6.59316406 2.92009766 -7.8359375 2.90234375 C-10.04937142 2.85533666 -10.04937142 2.85533666 -12 4 C-14.3494053 3.39239518 -16.68529088 2.72870472 -19 2 C-19 1.67 -19 1.34 -19 1 C-12.62694402 0.25492456 -6.41688675 -0.10349817 0 0 Z " fill="#232732" transform="translate(571,37)"/>
<path d="M0 0 C3.75526392 1.52770964 5.85030625 3.78622306 8.5 6.8125 C9.2528125 7.66457031 10.005625 8.51664063 10.78125 9.39453125 C12.90703644 11.89083329 14.96768295 14.42727137 17 17 C14.10147635 15.68692628 12.01722783 14.27315362 9.765625 12.03125 C8.90517578 11.17466797 8.90517578 11.17466797 8.02734375 10.30078125 C7.44082031 9.70652344 6.85429688 9.11226562 6.25 8.5 C5.64800781 7.90574219 5.04601562 7.31148437 4.42578125 6.69921875 C3.85730469 6.12816406 3.28882813 5.55710937 2.703125 4.96875 C2.18395508 4.44732422 1.66478516 3.92589844 1.12988281 3.38867188 C0 2 0 2 0 0 Z " fill="#051D57" transform="translate(757,863)"/>
<path d="M0 0 C0.99 0 1.98 0 3 0 C3 0.66 3 1.32 3 2 C3.66 2 4.32 2 5 2 C6.62109375 3.609375 6.62109375 3.609375 8.4375 5.75 C9.33275391 6.79414062 9.33275391 6.79414062 10.24609375 7.859375 C11.89081098 9.86673589 13.46126108 11.91070312 15 14 C12 14 12 14 10.55786133 12.82250977 C10.0708374 12.28424561 9.58381348 11.74598145 9.08203125 11.19140625 C8.55029297 10.60939453 8.01855469 10.02738281 7.47070312 9.42773438 C6.92349609 8.81220703 6.37628906 8.19667969 5.8125 7.5625 C5.25369141 6.95083984 4.69488281 6.33917969 4.11914062 5.70898438 C0 1.15730884 0 1.15730884 0 0 Z " fill="#187DEA" transform="translate(558,653)"/>
<path d="M0 0 C3.08203125 0.171875 3.08203125 0.171875 6.8125 0.75 C8.64748047 1.02070312 8.64748047 1.02070312 10.51953125 1.296875 C13.57841467 1.91483125 16.16418132 2.72523198 19 4 C16.02977779 4.91145054 13.93514414 5.01801972 10.890625 4.44140625 C10.13652344 4.30283203 9.38242187 4.16425781 8.60546875 4.02148438 C7.43951172 3.79428711 7.43951172 3.79428711 6.25 3.5625 C5.45722656 3.41490234 4.66445313 3.26730469 3.84765625 3.11523438 C1.89702754 2.75096034 -0.0516893 2.37647488 -2 2 C-1.34 1.34 -0.68 0.68 0 0 Z " fill="#212B68" transform="translate(511,1198)"/>
<path d="M0 0 C-2.7663534 1.34277732 -5.53876211 2.67255228 -8.3125 4 C-9.09818359 4.3815625 -9.88386719 4.763125 -10.69335938 5.15625 C-11.45068359 5.5171875 -12.20800781 5.878125 -12.98828125 6.25 C-13.68477783 6.58515625 -14.38127441 6.9203125 -15.09887695 7.265625 C-17 8 -17 8 -20 8 C-17.70790765 3.4158153 -10.12927133 1.45170853 -5.5625 -0.375 C-3 -1 -3 -1 0 0 Z " fill="#1934AF" transform="translate(878,1154)"/>
<path d="M0 0 C1.75 0.1875 1.75 0.1875 4 1 C4.5775 1.7425 5.155 2.485 5.75 3.25 C8.65872297 6.80510585 12.04690717 8.7452019 16 11 C15.01 11.33 14.02 11.66 13 12 C7.88397159 8.96618573 3.39945142 4.87747378 0 0 Z " fill="#35E0F1" transform="translate(795,900)"/>
<path d="M0 0 C0.74056641 0.00451172 1.48113281 0.00902344 2.24414062 0.01367188 C4.05862899 0.02537825 5.87307534 0.04331102 7.6875 0.0625 C3.73254575 2.67787297 -0.48077373 2.50514274 -5.0625 2.6875 C-6.25166016 2.74550781 -6.25166016 2.74550781 -7.46484375 2.8046875 C-9.41369416 2.898608 -11.36306451 2.98162822 -13.3125 3.0625 C-13.3125 2.4025 -13.3125 1.7425 -13.3125 1.0625 C-8.8746439 -0.04915232 -4.54293614 -0.05277763 0 0 Z " fill="#0C1E7C" transform="translate(685.3125,1205.9375)"/>
<path d="M0 0 C4.91935902 4.11619836 9.52647956 8.40410362 14 13 C13.01 13.33 12.02 13.66 11 14 C10.67 13.01 10.34 12.02 10 11 C7.99983534 9.79117904 7.99983534 9.79117904 6 9 C6 8.34 6 7.68 6 7 C5.34 7 4.68 7 4 7 C0 2.52941176 0 2.52941176 0 0 Z " fill="#3BD5FC" transform="translate(841,734)"/>
<path d="M0 0 C5.72108435 2.33081214 9.31913178 7.22850416 13 12 C10 12 10 12 7.51953125 9.62890625 C6.60868353 8.61434157 5.7066273 7.59183057 4.8125 6.5625 C4.34908203 6.04623047 3.88566406 5.52996094 3.40820312 4.99804688 C0 1.15817148 0 1.15817148 0 0 Z " fill="#1884E5" transform="translate(584,680)"/>
<path d="M0 0 C1.28497537 3.85492611 0.4052209 5.40346836 -0.9375 9.1875 C-1.31777344 10.27417969 -1.69804688 11.36085938 -2.08984375 12.48046875 C-2.39019531 13.31191406 -2.69054687 14.14335937 -3 15 C-3.99 15 -4.98 15 -6 15 C-5.57388649 13.24719267 -5.13360733 11.49782565 -4.6875 9.75 C-4.44386719 8.77546875 -4.20023437 7.8009375 -3.94921875 6.796875 C-3.00347644 4.01024335 -1.89291287 2.22695632 0 0 Z " fill="#282C38" transform="translate(79,419)"/>
<path d="M0 0 C0 3.56209836 -0.82989243 4.60568237 -2.8125 7.5 C-3.59560547 8.66015625 -3.59560547 8.66015625 -4.39453125 9.84375 C-5.81578461 11.75258663 -7.26709211 13.37637459 -9 15 C-9.66 14.67 -10.32 14.34 -11 14 C-9.73253547 12.2267539 -8.46089765 10.45649025 -7.1875 8.6875 C-6.47980469 7.70136719 -5.77210938 6.71523438 -5.04296875 5.69921875 C-3.45369163 3.59942813 -1.92542371 1.77965031 0 0 Z " fill="#052674" transform="translate(910,886)"/>
<path d="M0 0 C4.66666667 4.66666667 9.33333333 9.33333333 14 14 C13.01 14.495 13.01 14.495 12 15 C10.85742021 13.85742021 9.71579054 12.71387925 8.578125 11.56640625 C7.43700955 10.43376443 6.27840096 9.31865545 5.109375 8.21484375 C4.47515625 7.60769531 3.8409375 7.00054688 3.1875 6.375 C2.58292969 5.80523438 1.97835937 5.23546875 1.35546875 4.6484375 C0 3 0 3 0 0 Z " fill="#34C1FC" transform="translate(788,677)"/>
<path d="M0 0 C5.09210286 3.56320845 9.22660027 7.04741286 13 12 C10 12 10 12 7.51953125 9.8828125 C6.62621094 8.97273438 5.73289062 8.06265625 4.8125 7.125 C3.91144531 6.22007812 3.01039063 5.31515625 2.08203125 4.3828125 C0 2 0 2 0 0 Z " fill="#1C202E" transform="translate(462,334)"/>
<path d="M0 0 C7.92 3.96 7.92 3.96 16 8 C16 8.33 16 8.66 16 9 C14.35 9 12.7 9 11 9 C11 8.34 11 7.68 11 7 C10.484375 6.896875 9.96875 6.79375 9.4375 6.6875 C6.13973565 5.75736134 3.13366668 4.38604488 0 3 C0 2.01 0 1.02 0 0 Z " fill="#161A2B" transform="translate(898,103)"/>
<path d="M0 0 C2.03833424 1.2739589 4.03852126 2.61061923 6 4 C6 4.66 6 5.32 6 6 C6.66 6 7.32 6 8 6 C9.2890625 7.53125 9.2890625 7.53125 10.625 9.5 C11.07101562 10.1496875 11.51703125 10.799375 11.9765625 11.46875 C12.48316406 12.22671875 12.48316406 12.22671875 13 13 C10 13 10 13 8.28125 11.35546875 C7.6934375 10.64003906 7.105625 9.92460938 6.5 9.1875 C4.0034828 6.17056027 4.0034828 6.17056027 1.28125 3.36328125 C0 2 0 2 0 0 Z " fill="#2BC9F3" transform="translate(724,826)"/>
<path d="M0 0 C4.33333333 4.33333333 8.66666667 8.66666667 13 13 C10 13 10 13 7.51953125 10.91796875 C6.62621094 10.01691406 5.73289062 9.11585938 4.8125 8.1875 C3.91144531 7.29417969 3.01039063 6.40085937 2.08203125 5.48046875 C0 3 0 3 0 0 Z " fill="#38C6FC" transform="translate(804,694)"/>
<path d="M0 0 C3.84411747 1.56612193 6.15950209 4.02094121 9 7 C9.928125 7.928125 10.85625 8.85625 11.8125 9.8125 C12.534375 10.534375 13.25625 11.25625 14 12 C13.67 12.66 13.34 13.32 13 14 C10.83031809 11.85714108 8.66416525 9.71091768 6.5 7.5625 C5.87996094 6.95083984 5.25992188 6.33917969 4.62109375 5.70898438 C4.03457031 5.12568359 3.44804688 4.54238281 2.84375 3.94140625 C2.02680664 3.13231812 2.02680664 3.13231812 1.19335938 2.30688477 C0 1 0 1 0 0 Z " fill="#1278F5" transform="translate(531,625)"/>
<path d="M0 0 C9.41002278 0.96355353 9.41002278 0.96355353 14 2 C10.8250906 3.9078584 8.89414789 4.1609041 5.25 3.625 C4.45078125 3.51414063 3.6515625 3.40328125 2.828125 3.2890625 C2.22484375 3.19367187 1.6215625 3.09828125 1 3 C0.67 2.01 0.34 1.02 0 0 Z " fill="#121622" transform="translate(730,44)"/>
<path d="M0 0 C2.79163712 2.40768703 3.89717557 4.76146616 5.1875 8.1875 C5.53167969 9.08855469 5.87585938 9.98960937 6.23046875 10.91796875 C6.48441406 11.60503906 6.73835937 12.29210937 7 13 C6.34 13.66 5.68 14.32 5 15 C4.16013916 13.06532058 3.32831973 11.12714871 2.5 9.1875 C2.0359375 8.10855469 1.571875 7.02960938 1.09375 5.91796875 C0 3 0 3 0 0 Z " fill="#1C213E" transform="translate(908,413)"/>
<path d="M0 0 C0.33 0 0.66 0 1 0 C1.10349817 6.41688675 0.74507544 12.62694402 0 19 C-0.33 19 -0.66 19 -1 19 C-1.22171552 16.39634072 -1.42784859 13.79303507 -1.625 11.1875 C-1.68945312 10.44951172 -1.75390625 9.71152344 -1.8203125 8.95117188 C-2.2265625 3.33984375 -2.2265625 3.33984375 0 0 Z " fill="#213394" transform="translate(1207,679)"/>
<path d="M0 0 C3.45201639 1.47721422 5.64961936 3.43794001 8.25 6.125 C8.95640625 6.84945313 9.6628125 7.57390625 10.390625 8.3203125 C11.18726563 9.15175781 11.18726563 9.15175781 12 10 C7.82252779 10 5.93046229 7.67424701 3 5 C2.38125 4.443125 1.7625 3.88625 1.125 3.3125 C0 2 0 2 0 0 Z " fill="#043DDE" transform="translate(494,369)"/>
<path d="M0 0 C0.66 0.99 1.32 1.98 2 3 C1.24172908 4.17487036 0.46792245 5.33972592 -0.3125 6.5 C-0.74175781 7.1496875 -1.17101562 7.799375 -1.61328125 8.46875 C-2.07089844 8.9740625 -2.52851563 9.479375 -3 10 C-3.99 10 -4.98 10 -6 10 C-4.6302836 6.00499382 -2.74277578 3.19990508 0 0 Z " fill="#232734" transform="translate(156,274)"/>
<path d="M0 0 C0.33 0.66 0.66 1.32 1 2 C-4.96583144 10.81548975 -4.96583144 10.81548975 -10 12 C-3.84965831 3.55353075 -3.84965831 3.55353075 0 0 Z " fill="#1F2331" transform="translate(199,222)"/>
<path d="M0 0 C4.52615993 3.67832017 8.39424999 7.41086363 12 12 C8.23348872 11.45123677 6.73347739 9.99236151 4.3125 7.125 C3.40951172 6.07699219 3.40951172 6.07699219 2.48828125 5.0078125 C1 3 1 3 0 0 Z " fill="#39CCFC" transform="translate(824,716)"/>
<path d="M0 0 C-1.4375 2 -1.4375 2 -4 4 C-7.02824418 4.35442445 -9.96485939 4.23347235 -13 4 C-10.56272708 2.37515139 -8.62713877 1.34310925 -5.9375 0.3125 C-5.24527344 0.04050781 -4.55304688 -0.23148437 -3.83984375 -0.51171875 C-2 -1 -2 -1 0 0 Z " fill="#2E323D" transform="translate(430,70)"/>
<path d="M0 0 C0 0.66 0 1.32 0 2 C-1.78871178 2.38885039 -3.58112874 2.76069196 -5.375 3.125 C-6.37273437 3.33382812 -7.37046875 3.54265625 -8.3984375 3.7578125 C-9.25695312 3.83773437 -10.11546875 3.91765625 -11 4 C-11.66 3.34 -12.32 2.68 -13 2 C-8.46298506 0.54815522 -4.81938524 -0.23509196 0 0 Z " fill="#232631" transform="translate(513,46)"/>
<path d="M0 0 C0.99 0.33 1.98 0.66 3 1 C3 1.66 3 2.32 3 3 C3.639375 3.639375 4.27875 4.27875 4.9375 4.9375 C7 7 7 7 8 10 C7.01 10 6.02 10 5 10 C3.61328125 8.3203125 3.61328125 8.3203125 2.3125 6.125 C1.87550781 5.40570312 1.43851563 4.68640625 0.98828125 3.9453125 C0 2 0 2 0 0 Z " fill="#101525" transform="translate(141,948)"/>
<path d="M0 0 C1 3 1 3 -0.14453125 5.8828125 C-0.69496094 6.95273437 -1.24539063 8.02265625 -1.8125 9.125 C-2.35519531 10.20007813 -2.89789062 11.27515625 -3.45703125 12.3828125 C-5 15 -5 15 -7 16 C-5.45596258 10.9736654 -3.94129071 6.41193606 -1 2 C-0.67 1.34 -0.34 0.68 0 0 Z " fill="#38E3F2" transform="translate(912,876)"/>
<path d="M0 0 C3.15330554 0.60694155 5.18888867 1.6416665 7.75 3.5625 C8.67039062 4.24505859 8.67039062 4.24505859 9.609375 4.94140625 C10.29773438 5.46541016 10.29773438 5.46541016 11 6 C10.34 6.66 9.68 7.32 9 8 C8.34 7.67 7.68 7.34 7 7 C7 6.34 7 5.68 7 5 C6.01 5 5.02 5 4 5 C4 4.34 4 3.68 4 3 C2.68 2.67 1.36 2.34 0 2 C0 1.34 0 0.68 0 0 Z " fill="#12172C" transform="translate(951,136)"/>
<path d="M0 0 C4.2742558 1.5830577 6.26531794 4.50568404 9 8 C6 8 6 8 4.39453125 6.7578125 C3.87246094 6.21898437 3.35039063 5.68015625 2.8125 5.125 C2.28269531 4.59132813 1.75289062 4.05765625 1.20703125 3.5078125 C0 2 0 2 0 0 Z " fill="#1E9BE4" transform="translate(647,746)"/>
<path d="M0 0 C0.33 0 0.66 0 1 0 C1.125 7.75 1.125 7.75 0 10 C-0.66 10 -1.32 10 -2 10 C-2.33 10.99 -2.66 11.98 -3 13 C-2.45144652 8.428721 -1.58255197 4.32564205 0 0 Z " fill="#444852" transform="translate(65,458)"/>
<path d="M0 0 C0 3.23655184 -0.6550847 4.78752639 -2 7.6875 C-2.37125 8.49574219 -2.7425 9.30398438 -3.125 10.13671875 C-3.41375 10.75160156 -3.7025 11.36648438 -4 12 C-5.11889609 8.59825551 -4.9845447 7.95657797 -3.6875 4.3125 C-2 1 -2 1 0 0 Z " fill="#2341BA" transform="translate(1163,854)"/>
<path d="M0 0 C3.40312738 1.05875074 6.01353231 2.00902154 9 4 C9 4.66 9 5.32 9 6 C4 4 4 4 -1 2 C-0.67 1.34 -0.34 0.68 0 0 Z " fill="#2F323F" transform="translate(444,323)"/>
<path d="M0 0 C0 0.66 0 1.32 0 2 C-2.97 3.65 -5.94 5.3 -9 7 C-8 3 -8 3 -5.625 1.25 C-3 0 -3 0 0 0 Z " fill="#141926" transform="translate(319,125)"/>
<path d="M0 0 C3.53790403 3.69172595 3.59115883 7.09390595 4 12 C2 11 2 11 0.875 8.25 C0.08026605 5.29813104 -0.17810598 3.02780163 0 0 Z " fill="#0D101D" transform="translate(67,791)"/>
<path d="M0 0 C0.66 0.33 1.32 0.66 2 1 C1.44687265 5.02992782 0.8441938 9.02022924 0 13 C-0.33 13 -0.66 13 -1 13 C-1.07654536 8.48382401 -1.10228696 4.40914783 0 0 Z " fill="#080D1B" transform="translate(47,551)"/>
<path d="M0 0 C3.00617269 3.00617269 2.59585316 5.82381598 3 10 C2.01 10.495 2.01 10.495 1 11 C-1.125 3.375 -1.125 3.375 0 0 Z " fill="#313B6F" transform="translate(1191,474)"/>
<path d="M0 0 C0.99 0.33 1.98 0.66 3 1 C3.33 3.97 3.66 6.94 4 10 C3.01 9.67 2.02 9.34 1 9 C0.67 6.03 0.34 3.06 0 0 Z " fill="#212C66" transform="translate(1187,464)"/>
<path d="M0 0 C0.33 0 0.66 0 1 0 C1.125 5.75 1.125 5.75 0 8 C-0.66 8 -1.32 8 -2 8 C-2.33 9.32 -2.66 10.64 -3 12 C-4 10 -4 10 -3.22265625 7.6171875 C-2.83980469 6.71226562 -2.45695312 5.80734375 -2.0625 4.875 C-1.68222656 3.96492188 -1.30195312 3.05484375 -0.91015625 2.1171875 C-0.60980469 1.41851562 -0.30945313 0.71984375 0 0 Z " fill="#444852" transform="translate(87,395)"/>
<path d="M0 0 C4.2742558 1.5830577 6.26531794 4.50568404 9 8 C6 8 6 8 3.375 5.6875 C1 3 1 3 0 0 Z " fill="#212740" transform="translate(890,392)"/>
<path d="M0 0 C-8.02058824 4.15882353 -8.02058824 4.15882353 -11.3125 3.625 C-11.869375 3.41875 -12.42625 3.2125 -13 3 C-8.37802694 0.78145293 -5.23175837 -0.38281159 0 0 Z " fill="#1E38AA" transform="translate(858,1163)"/>
<path d="M0 0 C2.91227269 3.28804981 4.49701212 5.59885603 5 10 C1.32769295 6.92000054 0.43197635 4.7517398 0 0 Z " fill="#0F1424" transform="translate(135,937)"/>
<path d="M0 0 C2.0625 0.4375 2.0625 0.4375 4 1 C0.74874983 3.16750011 -1.14533632 3.68533358 -5 4 C-7.375 3.0625 -7.375 3.0625 -9 2 C-6.94921875 1.77213542 -4.8984375 1.54427083 -2.84765625 1.31640625 C-0.98859771 1.18113386 -0.98859771 1.18113386 0 0 Z " fill="#092A72" transform="translate(866,921)"/>
<path d="M0 0 C0.66 0 1.32 0 2 0 C2.18175781 0.84884766 2.18175781 0.84884766 2.3671875 1.71484375 C2.53476563 2.44832031 2.70234375 3.18179688 2.875 3.9375 C3.03742188 4.66839844 3.19984375 5.39929688 3.3671875 6.15234375 C3.82961523 8.20700294 3.82961523 8.20700294 6 9 C5.34 9.66 4.68 10.32 4 11 C3.32591692 9.73308493 2.66099503 8.46129251 2 7.1875 C1.62875 6.47980469 1.2575 5.77210938 0.875 5.04296875 C0 3 0 3 0 0 Z " fill="#131625" transform="translate(95,866)"/>
<path d="M0 0 C0.66 0 1.32 0 2 0 C2.33 1.65 2.66 3.3 3 5 C2.01 5.495 2.01 5.495 1 6 C0.34227572 9.02934491 0.34227572 9.02934491 0 12 C-0.33 12 -0.66 12 -1 12 C-1.14285714 3.42857143 -1.14285714 3.42857143 0 0 Z " fill="#30333E" transform="translate(49,529)"/>
<path d="M0 0 C0.66 0.33 1.32 0.66 2 1 C0.02 2.98 -1.96 4.96 -4 7 C-4.99 6.67 -5.98 6.34 -7 6 C-4.69 4.02 -2.38 2.04 0 0 Z " fill="#202533" transform="translate(237,185)"/>
<path d="M0 0 C4.75481646 0.57634139 7.97048212 2.55068521 12 5 C10.4375 5.75 10.4375 5.75 8 6 C4.77102114 4.63931677 1.61680316 3.23360633 0 0 Z " fill="#141829" transform="translate(914,113)"/>
<path d="M0 0 C0.66 0 1.32 0 2 0 C0.55746343 3.36591866 -1.33264727 5.51047079 -4 8 C-4 4.06830895 -2.60580385 2.83572772 0 0 Z " fill="#37E5F1" transform="translate(903,892)"/>
<path d="M0 0 C2.31 1.98 4.62 3.96 7 6 C6.34 6.66 5.68 7.32 5 8 C2.5 5.6875 2.5 5.6875 0 3 C0 2.01 0 1.02 0 0 Z " fill="#0B3773" transform="translate(786,892)"/>
<path d="M0 0 C0.99 0.33 1.98 0.66 3 1 C4.1875 4.0625 4.1875 4.0625 5 7 C4.34 7.66 3.68 8.32 3 9 C2.01 6.03 1.02 3.06 0 0 Z " fill="#3A3D48" transform="translate(80,833)"/>
<path d="M0 0 C3 3 3 3 3.375 5.5625 C3.25125 6.366875 3.1275 7.17125 3 8 C2.01 8.66 1.02 9.32 0 10 C0 6.7 0 3.4 0 0 Z " fill="#181C28" transform="translate(45,559)"/>
<path d="M0 0 C0.33 0 0.66 0 1 0 C2.12029814 5.48946087 1.79217969 8.83430559 0 14 C-0.33 14 -0.66 14 -1 14 C-1.08333357 9.1666528 -0.95261487 4.76307437 0 0 Z " fill="#30343E" transform="translate(47,542)"/>
<path d="M0 0 C0.66 0.33 1.32 0.66 2 1 C-2.75 5.875 -2.75 5.875 -5 7 C-5.66 6.34 -6.32 5.68 -7 5 C-4.69 3.35 -2.38 1.7 0 0 Z " fill="#1F2431" transform="translate(297,137)"/>
<path d="M0 0 C3.77545388 1.09068668 6.47043472 1.9083091 9 5 C8.01 5.33 7.02 5.66 6 6 C2.8125 3.625 2.8125 3.625 0 1 C0 0.67 0 0.34 0 0 Z " fill="#171F38" transform="translate(273,1090)"/>
<path d="M0 0 C0.66 0 1.32 0 2 0 C0.4169423 4.2742558 -2.50568404 6.26531794 -6 9 C-4.4722133 5.56247993 -2.49818944 2.81046312 0 0 Z " fill="#143AC2" transform="translate(1061,1012)"/>
<path d="M0 0 C1 2 1 2 0.44140625 3.9453125 C0.15136719 4.66460937 -0.13867188 5.38390625 -0.4375 6.125 C-0.72496094 6.84945313 -1.01242187 7.57390625 -1.30859375 8.3203125 C-1.53675781 8.87460937 -1.76492188 9.42890625 -2 10 C-2.33 10 -2.66 10 -3 10 C-2.88637738 8.5199159 -2.75877092 7.04089926 -2.625 5.5625 C-2.55539062 4.73878906 -2.48578125 3.91507812 -2.4140625 3.06640625 C-2.27742188 2.38449219 -2.14078125 1.70257813 -2 1 C-1.34 0.67 -0.68 0.34 0 0 Z " fill="#353843" transform="translate(343,364)"/>
<path d="M0 0 C0.33 0.99 0.66 1.98 1 3 C-0.65 4.32 -2.3 5.64 -4 7 C-4.66 6.67 -5.32 6.34 -6 6 C-4 4 -2 2 0 0 Z " fill="#141825" transform="translate(289,143)"/>
<path d="M0 0 C-1 1.5 -1 1.5 -3 3 C-5.71846235 3.27345479 -8.25677199 3.13491285 -11 3 C-3.71428571 -1.85714286 -3.71428571 -1.85714286 0 0 Z " fill="#444851" transform="translate(441,66)"/>
<path d="M0 0 C2.97 0.33 5.94 0.66 9 1 C9 1.99 9 2.98 9 4 C6.03 3.01 3.06 2.02 0 1 C0 0.67 0 0.34 0 0 Z " fill="#0C0F1C" transform="translate(775,55)"/>
<path d="M0 0 C3.3 0.33 6.6 0.66 10 1 C10 1.33 10 1.66 10 2 C7.36 2.33 4.72 2.66 2 3 C1.34 2.01 0.68 1.02 0 0 Z " fill="#0E121D" transform="translate(672,36)"/>
<path d="M0 0 C4.455 0.99 4.455 0.99 9 2 C5 4 5 4 2.25 3.125 C1.5075 2.75375 0.765 2.3825 0 2 C0 1.34 0 0.68 0 0 Z " fill="#051B63" transform="translate(829,922)"/>
<path d="M0 0 C1.5625 1.75 1.5625 1.75 3 4 C2.6875 6.25 2.6875 6.25 2 8 C1.34 8 0.68 8 0 8 C0 5.36 0 2.72 0 0 Z " fill="#212531" transform="translate(51,516)"/>
<path d="M0 0 C0.33 0 0.66 0 1 0 C1.33 2.97 1.66 5.94 2 9 C1.34 9 0.68 9 0 9 C-1.125 2.25 -1.125 2.25 0 0 Z " fill="#32396D" transform="translate(1194,484)"/>
<path d="M0 0 C-1.39332574 3.36720387 -2.9789286 4.9859524 -6 7 C-5.37162381 3.35541809 -4.14650034 0 0 0 Z " fill="#222633" transform="translate(363,336)"/>
</svg>
